<svg id="svg" version="1.1" xmlns="http://www.w3.org/2000/svg" xmlns:xlink="http://www.w3.org/1999/xlink" width="400" height="108.03858520900322" viewBox="0, 0, 400,108.03858520900322"><g id="svgg"><path id="path0" d="M4.615 0.120 C 4.358 0.159,4.106 0.298,4.056 0.429 C 4.005 0.560,3.819 0.667,3.642 0.667 C 3.341 0.667,3.180 0.762,2.589 1.292 C 2.462 1.406,2.277 1.500,2.179 1.500 C 2.080 1.500,2.000 1.613,2.000 1.750 C 2.000 1.887,1.887 2.000,1.750 2.000 C 1.613 2.000,1.500 2.078,1.500 2.174 C 1.500 2.337,1.370 2.526,0.875 3.077 C 0.760 3.205,0.667 3.438,0.667 3.595 C 0.667 3.752,0.535 3.976,0.375 4.093 C -0.079 4.425,-0.079 103.575,0.375 103.907 C 0.535 104.024,0.667 104.248,0.667 104.405 C 0.667 104.562,0.760 104.795,0.875 104.923 C 1.370 105.474,1.500 105.663,1.500 105.826 C 1.500 105.922,1.613 106.000,1.750 106.000 C 1.887 106.000,2.000 106.112,2.000 106.250 C 2.000 106.388,2.112 106.500,2.250 106.500 C 2.387 106.500,2.500 106.556,2.501 106.625 C 2.502 106.774,3.452 107.333,3.703 107.333 C 3.801 107.333,3.976 107.465,4.093 107.625 C 4.295 107.901,6.863 107.919,53.278 107.966 C 102.671 108.016,104.000 108.005,104.000 107.571 C 104.000 107.429,104.167 107.333,104.417 107.333 C 104.646 107.333,104.835 107.277,104.838 107.208 C 104.840 107.140,105.137 106.902,105.497 106.680 C 105.857 106.458,106.113 106.214,106.066 106.138 C 106.019 106.062,106.097 106.000,106.240 106.000 C 106.383 106.000,106.500 105.920,106.500 105.821 C 106.500 105.723,106.594 105.538,106.708 105.411 C 107.238 104.820,107.333 104.659,107.333 104.358 C 107.333 104.181,107.446 103.992,107.583 103.940 C 107.721 103.887,107.833 103.660,107.833 103.436 C 107.833 103.211,107.927 102.997,108.042 102.958 C 108.386 102.844,108.428 5.452,108.084 5.108 C 107.946 4.970,107.833 4.699,107.833 4.507 C 107.833 4.314,107.721 4.113,107.583 4.060 C 107.446 4.008,107.333 3.817,107.333 3.637 C 107.333 3.457,107.240 3.205,107.125 3.077 C 106.661 2.559,106.500 2.342,106.500 2.230 C 106.500 2.048,105.482 1.183,105.140 1.075 C 104.971 1.021,104.833 0.908,104.833 0.822 C 104.833 0.737,104.646 0.667,104.417 0.667 C 104.175 0.667,104.000 0.571,104.000 0.438 C 104.000 0.304,103.743 0.168,103.375 0.107 C 102.689 -0.006,5.371 0.007,4.615 0.120 M58.667 23.416 C 64.473 24.574,68.915 27.710,72.122 32.917 C 73.448 35.070,74.333 38.187,74.589 41.606 C 74.860 45.213,76.149 46.336,80.021 46.334 C 82.629 46.333,83.744 46.868,84.565 48.512 C 85.007 49.400,84.965 67.159,84.515 69.262 C 82.953 76.556,77.764 82.189,70.833 84.114 C 68.328 84.810,67.929 84.827,54.083 84.827 C 39.483 84.827,38.581 84.773,36.083 83.754 C 35.808 83.642,35.350 83.459,35.065 83.348 C 32.379 82.300,28.993 79.751,27.406 77.583 C 27.138 77.217,26.872 76.879,26.814 76.833 C 26.377 76.484,24.863 73.581,24.351 72.110 C 23.253 68.953,23.285 69.452,23.216 54.500 C 23.148 39.646,23.164 39.330,24.124 36.417 C 26.320 29.751,31.599 25.119,38.917 23.434 C 40.444 23.082,56.918 23.068,58.667 23.416 M42.083 38.610 C 38.004 39.182,37.400 44.663,41.264 46.042 C 42.510 46.487,57.818 46.487,59.080 46.042 C 62.406 44.870,62.579 40.373,59.355 38.873 C 58.775 38.603,43.762 38.375,42.083 38.610 M41.195 61.978 C 38.436 63.098,37.788 66.377,39.928 68.395 C 41.128 69.527,41.103 69.525,54.500 69.468 L 66.417 69.417 67.220 69.018 C 70.325 67.476,70.058 62.990,66.800 61.937 C 65.475 61.509,42.259 61.546,41.195 61.978 " stroke="none" fill="#ff561c" fill-rule="evenodd"></path><path id="path1" d="M38.917 23.434 C 31.599 25.119,26.320 29.751,24.124 36.417 C 23.164 39.330,23.148 39.646,23.216 54.500 C 23.285 69.452,23.253 68.953,24.351 72.110 C 24.863 73.581,26.377 76.484,26.814 76.833 C 26.872 76.879,27.138 77.217,27.406 77.583 C 28.993 79.751,32.379 82.300,35.065 83.348 C 35.350 83.459,35.808 83.642,36.083 83.754 C 38.581 84.773,39.483 84.827,54.083 84.827 C 67.929 84.827,68.328 84.810,70.833 84.114 C 77.764 82.189,82.953 76.556,84.515 69.262 C 84.965 67.159,85.007 49.400,84.565 48.512 C 83.744 46.868,82.629 46.333,80.021 46.334 C 76.149 46.336,74.860 45.213,74.589 41.606 C 74.333 38.187,73.448 35.070,72.122 32.917 C 68.915 27.710,64.473 24.574,58.667 23.416 C 56.918 23.068,40.444 23.082,38.917 23.434 M59.355 38.873 C 62.579 40.373,62.406 44.870,59.080 46.042 C 57.818 46.487,42.510 46.487,41.264 46.042 C 37.400 44.663,38.004 39.182,42.083 38.610 C 43.762 38.375,58.775 38.603,59.355 38.873 M66.800 61.937 C 70.058 62.990,70.325 67.476,67.220 69.018 L 66.417 69.417 54.500 69.468 C 41.103 69.525,41.128 69.527,39.928 68.395 C 37.788 66.377,38.436 63.098,41.195 61.978 C 42.259 61.546,65.475 61.509,66.800 61.937 " stroke="none" fill="#f1f1f1" fill-rule="evenodd"></path><path id="path2" d="M144.125 24.347 C 143.645 24.626,143.675 79.570,144.156 79.827 C 144.729 80.134,169.083 80.060,169.393 79.750 C 169.540 79.602,169.948 79.500,170.387 79.500 C 170.895 79.500,171.161 79.421,171.227 79.250 C 171.287 79.093,171.542 79.000,171.911 79.000 C 172.235 79.000,172.500 78.925,172.500 78.833 C 172.500 78.742,172.688 78.667,172.917 78.667 C 173.176 78.667,173.333 78.572,173.333 78.417 C 173.333 78.263,173.490 78.167,173.740 78.167 C 173.964 78.167,174.193 78.092,174.250 78.000 C 174.307 77.908,174.488 77.833,174.653 77.833 C 174.818 77.833,175.091 77.650,175.259 77.427 C 175.427 77.203,175.737 76.977,175.949 76.924 C 176.160 76.870,176.333 76.753,176.333 76.663 C 176.333 76.574,176.446 76.500,176.583 76.500 C 176.721 76.500,176.833 76.387,176.833 76.250 C 176.833 76.112,176.914 76.000,177.012 76.000 C 177.243 76.000,177.667 75.576,177.667 75.345 C 177.667 75.247,177.747 75.167,177.845 75.167 C 178.076 75.167,178.500 74.743,178.500 74.512 C 178.500 74.414,178.581 74.333,178.679 74.333 C 178.913 74.333,179.833 73.413,179.833 73.179 C 179.833 73.081,179.907 73.000,179.997 73.000 C 180.087 73.000,180.207 72.813,180.265 72.583 C 180.322 72.354,180.436 72.167,180.518 72.167 C 180.600 72.167,180.667 71.979,180.667 71.750 C 180.667 71.521,180.760 71.333,180.875 71.332 C 181.126 71.330,181.500 70.575,181.500 70.071 C 181.500 69.871,181.612 69.614,181.750 69.500 C 181.887 69.386,182.000 69.045,182.000 68.743 C 182.000 68.442,182.094 68.163,182.208 68.125 C 182.350 68.078,182.435 67.542,182.474 66.445 C 182.506 65.558,182.600 64.833,182.683 64.833 C 182.879 64.833,182.879 63.115,182.684 62.908 C 182.601 62.821,182.504 62.193,182.468 61.512 C 182.427 60.744,182.326 60.247,182.201 60.206 C 182.091 60.169,182.000 59.883,182.000 59.569 C 182.000 59.174,181.923 59.000,181.750 59.000 C 181.587 59.000,181.500 58.837,181.500 58.533 C 181.500 57.941,181.147 57.170,180.875 57.168 C 180.760 57.167,180.667 56.997,180.667 56.790 C 180.667 56.582,180.479 56.272,180.250 56.100 C 180.021 55.927,179.833 55.682,179.833 55.555 C 179.833 55.427,179.721 55.280,179.583 55.227 C 179.446 55.174,179.333 55.058,179.333 54.969 C 179.333 54.759,178.408 53.833,178.197 53.833 C 178.108 53.833,177.992 53.721,177.940 53.583 C 177.887 53.446,177.729 53.333,177.589 53.333 C 177.448 53.333,177.333 53.258,177.333 53.167 C 177.333 53.075,177.221 53.000,177.083 53.000 C 176.946 53.000,176.833 52.887,176.833 52.750 C 176.833 52.612,176.701 52.500,176.540 52.500 C 176.379 52.500,176.044 52.313,175.797 52.083 C 175.550 51.854,175.213 51.664,175.049 51.661 C 174.695 51.655,174.167 51.285,174.167 51.043 C 174.167 50.949,174.298 50.828,174.458 50.774 C 174.877 50.634,175.359 50.307,175.783 49.875 C 175.985 49.669,176.186 49.500,176.228 49.500 C 176.425 49.500,177.667 48.254,177.667 48.056 C 177.667 47.934,177.779 47.833,177.917 47.833 C 178.054 47.833,178.167 47.721,178.167 47.583 C 178.167 47.446,178.242 47.333,178.333 47.333 C 178.425 47.333,178.500 47.221,178.500 47.083 C 178.500 46.946,178.612 46.833,178.750 46.833 C 178.903 46.833,179.000 46.678,179.000 46.434 C 179.000 46.215,179.112 45.992,179.250 45.940 C 179.387 45.887,179.500 45.691,179.500 45.505 C 179.500 45.319,179.575 45.167,179.667 45.167 C 179.758 45.167,179.833 45.011,179.833 44.821 C 179.833 44.632,179.946 44.364,180.083 44.226 C 180.221 44.089,180.333 43.723,180.333 43.415 C 180.333 43.106,180.408 42.807,180.500 42.750 C 180.602 42.687,180.667 41.363,180.667 39.333 C 180.667 37.304,180.602 35.980,180.500 35.917 C 180.408 35.860,180.333 35.598,180.333 35.335 C 180.333 35.072,180.221 34.745,180.083 34.607 C 179.946 34.470,179.833 34.170,179.833 33.942 C 179.833 33.553,179.460 32.697,179.083 32.222 C 178.992 32.106,178.842 31.915,178.750 31.797 C 178.658 31.680,178.435 31.302,178.254 30.958 C 178.073 30.615,177.866 30.333,177.795 30.333 C 177.725 30.333,177.667 30.257,177.667 30.163 C 177.667 29.867,175.293 27.667,174.973 27.667 C 174.805 27.667,174.667 27.554,174.667 27.417 C 174.667 27.279,174.600 27.167,174.517 27.167 C 174.435 27.167,174.192 26.980,173.976 26.753 C 173.760 26.525,173.452 26.338,173.292 26.336 C 173.131 26.335,173.000 26.258,173.000 26.167 C 173.000 26.075,172.821 26.000,172.601 26.000 C 172.382 26.000,172.159 25.887,172.106 25.750 C 172.054 25.613,171.853 25.500,171.660 25.500 C 171.467 25.500,171.197 25.388,171.060 25.250 C 170.922 25.113,170.590 25.000,170.321 25.000 C 170.053 25.000,169.833 24.925,169.833 24.833 C 169.833 24.742,169.505 24.667,169.104 24.667 C 168.659 24.667,168.293 24.569,168.167 24.417 C 167.912 24.109,144.648 24.042,144.125 24.347 M188.500 52.083 L 188.500 80.000 192.333 80.000 L 196.167 80.000 196.167 52.083 L 196.167 24.167 192.333 24.167 L 188.500 24.167 188.500 52.083 M164.868 31.686 C 164.902 31.790,165.469 31.911,166.136 31.959 C 166.799 32.007,167.382 32.110,167.431 32.189 C 167.480 32.269,167.695 32.333,167.909 32.333 C 168.123 32.333,168.341 32.446,168.394 32.583 C 168.446 32.721,168.614 32.833,168.767 32.833 C 168.919 32.833,169.292 33.096,169.594 33.417 C 169.897 33.737,170.224 34.000,170.322 34.000 C 170.420 34.000,170.500 34.080,170.500 34.178 C 170.500 34.276,170.762 34.603,171.083 34.906 C 171.404 35.208,171.667 35.616,171.667 35.811 C 171.667 36.016,171.773 36.167,171.917 36.167 C 172.072 36.167,172.167 36.324,172.167 36.583 C 172.167 36.813,172.232 37.000,172.312 37.000 C 172.391 37.000,172.497 37.354,172.545 37.786 C 172.594 38.219,172.716 38.600,172.817 38.633 C 173.101 38.728,173.046 40.478,172.750 40.774 C 172.612 40.911,172.500 41.277,172.500 41.585 C 172.500 41.894,172.425 42.193,172.333 42.250 C 172.242 42.307,172.167 42.536,172.167 42.760 C 172.167 43.010,172.071 43.167,171.917 43.167 C 171.779 43.167,171.667 43.314,171.667 43.497 C 171.667 43.949,169.129 46.500,168.680 46.500 C 168.483 46.500,168.333 46.608,168.333 46.750 C 168.333 46.906,168.176 47.000,167.917 47.000 C 167.688 47.000,167.500 47.075,167.500 47.167 C 167.500 47.258,167.200 47.333,166.833 47.333 C 166.352 47.333,166.167 47.403,166.167 47.583 C 166.167 47.802,165.269 47.833,159.083 47.833 L 152.000 47.833 152.000 39.667 L 152.000 31.500 158.403 31.500 C 162.975 31.500,164.823 31.553,164.868 31.686 M220.583 40.333 C 220.525 40.428,219.691 40.500,218.652 40.500 C 217.180 40.500,216.804 40.549,216.727 40.750 C 216.660 40.925,216.387 41.000,215.816 41.000 C 215.367 41.000,215.000 41.075,215.000 41.167 C 215.000 41.258,214.735 41.333,214.411 41.333 C 214.042 41.333,213.787 41.426,213.727 41.583 C 213.674 41.721,213.456 41.833,213.242 41.833 C 213.028 41.833,212.807 41.908,212.750 42.000 C 212.693 42.092,212.507 42.167,212.335 42.167 C 212.164 42.167,211.911 42.279,211.774 42.417 C 211.636 42.554,211.443 42.667,211.345 42.667 C 211.247 42.667,211.167 42.734,211.167 42.815 C 211.167 42.897,210.979 43.011,210.750 43.068 C 210.521 43.126,210.333 43.247,210.333 43.337 C 210.333 43.426,210.221 43.500,210.083 43.500 C 209.946 43.500,209.833 43.612,209.833 43.750 C 209.833 43.887,209.702 44.002,209.542 44.005 C 209.181 44.012,208.667 44.387,208.667 44.643 C 208.667 44.748,208.587 44.833,208.489 44.833 C 208.268 44.833,206.500 46.586,206.500 46.805 C 206.500 46.892,206.387 47.008,206.250 47.060 C 206.112 47.113,206.000 47.296,206.000 47.467 C 206.000 47.637,205.813 47.877,205.583 48.000 C 205.354 48.123,205.167 48.315,205.167 48.427 C 205.167 48.539,205.054 48.674,204.917 48.727 C 204.779 48.780,204.667 48.975,204.667 49.161 C 204.667 49.348,204.592 49.500,204.500 49.500 C 204.408 49.500,204.333 49.688,204.333 49.917 C 204.333 50.176,204.239 50.333,204.083 50.333 C 203.928 50.333,203.833 50.491,203.833 50.750 C 203.833 50.979,203.758 51.167,203.667 51.167 C 203.575 51.167,203.500 51.346,203.500 51.566 C 203.500 51.785,203.387 52.008,203.250 52.060 C 203.112 52.113,203.000 52.340,203.000 52.564 C 203.000 52.789,202.918 53.000,202.817 53.033 C 202.716 53.067,202.594 53.448,202.545 53.880 C 202.497 54.313,202.391 54.667,202.312 54.667 C 202.232 54.667,202.167 54.960,202.167 55.319 C 202.167 55.694,202.078 56.002,201.958 56.042 C 201.612 56.157,201.564 65.138,201.909 65.270 C 202.093 65.341,202.167 65.603,202.167 66.184 C 202.167 66.633,202.232 67.000,202.312 67.000 C 202.391 67.000,202.497 67.354,202.545 67.786 C 202.594 68.219,202.716 68.600,202.817 68.633 C 202.918 68.667,203.000 68.913,203.000 69.181 C 203.000 69.502,203.085 69.667,203.250 69.667 C 203.406 69.667,203.500 69.824,203.500 70.083 C 203.500 70.313,203.575 70.500,203.667 70.500 C 203.758 70.500,203.833 70.688,203.833 70.917 C 203.833 71.176,203.928 71.333,204.083 71.333 C 204.239 71.333,204.333 71.491,204.333 71.750 C 204.333 71.979,204.400 72.167,204.482 72.167 C 204.564 72.167,204.678 72.354,204.735 72.583 C 204.793 72.813,204.913 73.000,205.003 73.000 C 205.093 73.000,205.167 73.069,205.167 73.154 C 205.167 73.238,205.373 73.530,205.625 73.802 C 206.242 74.467,206.500 74.798,206.500 74.925 C 206.500 75.190,208.876 77.333,209.170 77.333 C 209.352 77.333,209.500 77.414,209.500 77.512 C 209.500 77.794,210.263 78.402,210.875 78.608 C 211.035 78.661,211.167 78.772,211.167 78.853 C 211.167 78.934,211.354 79.000,211.583 79.000 C 211.843 79.000,212.000 79.094,212.000 79.250 C 212.000 79.406,212.157 79.500,212.417 79.500 C 212.646 79.500,212.833 79.566,212.833 79.647 C 212.833 79.807,214.306 80.333,214.752 80.333 C 214.901 80.333,215.136 80.446,215.274 80.583 C 215.420 80.729,215.827 80.833,216.252 80.833 C 216.653 80.833,217.027 80.908,217.083 81.000 C 217.148 81.104,218.780 81.167,221.427 81.167 C 224.142 81.167,225.667 81.107,225.667 81.000 C 225.667 80.908,226.032 80.833,226.480 80.833 C 226.999 80.833,227.367 80.743,227.500 80.583 C 227.614 80.446,227.923 80.333,228.187 80.333 C 228.451 80.333,228.667 80.268,228.667 80.188 C 228.667 80.108,228.967 79.995,229.333 79.936 C 229.700 79.877,230.000 79.755,230.000 79.665 C 230.000 79.574,230.188 79.500,230.417 79.500 C 230.676 79.500,230.833 79.406,230.833 79.250 C 230.833 79.094,230.991 79.000,231.250 79.000 C 231.479 79.000,231.667 78.925,231.667 78.833 C 231.667 78.742,231.779 78.667,231.917 78.667 C 232.054 78.667,232.167 78.554,232.167 78.417 C 232.167 78.275,232.316 78.167,232.513 78.167 C 232.703 78.167,233.084 77.942,233.359 77.667 C 233.634 77.392,233.926 77.167,234.007 77.167 C 234.203 77.167,236.333 75.043,236.333 74.847 C 236.333 74.763,236.633 74.373,237.000 73.980 C 237.367 73.586,237.667 73.130,237.667 72.966 C 237.667 72.801,237.779 72.667,237.917 72.667 C 238.054 72.667,238.167 72.554,238.167 72.417 C 238.167 72.279,238.240 72.167,238.330 72.167 C 238.420 72.167,238.541 71.979,238.598 71.750 C 238.656 71.521,238.770 71.333,238.851 71.333 C 238.933 71.333,239.000 71.146,239.000 70.917 C 239.000 70.688,239.061 70.500,239.135 70.500 C 239.335 70.500,239.833 69.285,239.833 68.795 C 239.833 68.561,239.946 68.326,240.083 68.273 C 240.255 68.207,240.333 67.939,240.333 67.422 C 240.333 67.007,240.408 66.667,240.500 66.667 C 240.592 66.667,240.667 66.254,240.667 65.750 C 240.667 65.046,240.725 64.833,240.917 64.833 C 241.132 64.833,241.167 64.277,241.167 60.828 C 241.167 57.422,241.129 56.809,240.917 56.727 C 240.742 56.660,240.667 56.388,240.667 55.825 C 240.667 55.382,240.592 54.973,240.500 54.917 C 240.408 54.860,240.333 54.516,240.333 54.152 C 240.333 53.717,240.247 53.457,240.083 53.394 C 239.929 53.334,239.833 53.081,239.833 52.732 C 239.833 52.421,239.758 52.167,239.667 52.167 C 239.575 52.167,239.500 51.977,239.500 51.745 C 239.500 51.513,239.387 51.280,239.250 51.227 C 239.112 51.174,239.000 50.952,239.000 50.732 C 239.000 50.513,238.926 50.333,238.837 50.333 C 238.747 50.333,238.626 50.146,238.568 49.917 C 238.511 49.688,238.397 49.500,238.315 49.500 C 238.234 49.500,238.167 49.399,238.167 49.276 C 238.167 49.153,237.979 48.834,237.750 48.568 C 237.521 48.301,237.334 48.027,237.334 47.958 C 237.333 47.890,237.221 47.833,237.083 47.833 C 236.946 47.833,236.833 47.721,236.833 47.583 C 236.833 47.446,236.763 47.333,236.678 47.333 C 236.592 47.333,236.471 47.172,236.409 46.975 C 236.246 46.464,234.186 44.437,233.542 44.156 C 233.244 44.025,233.000 43.824,233.000 43.709 C 233.000 43.594,232.887 43.500,232.750 43.500 C 232.612 43.500,232.500 43.426,232.500 43.337 C 232.500 43.247,232.313 43.126,232.083 43.068 C 231.854 43.011,231.667 42.897,231.667 42.815 C 231.667 42.734,231.479 42.667,231.250 42.667 C 230.991 42.667,230.833 42.572,230.833 42.417 C 230.833 42.261,230.676 42.167,230.417 42.167 C 230.188 42.167,230.000 42.092,230.000 42.000 C 230.000 41.908,229.821 41.833,229.601 41.833 C 229.382 41.833,229.159 41.721,229.106 41.583 C 229.046 41.426,228.791 41.333,228.422 41.333 C 228.098 41.333,227.833 41.258,227.833 41.167 C 227.833 41.075,227.466 41.000,227.018 41.000 C 226.447 41.000,226.174 40.925,226.106 40.750 C 226.029 40.548,225.643 40.500,224.089 40.500 C 222.918 40.500,222.167 40.435,222.167 40.333 C 222.167 40.242,221.834 40.167,221.427 40.167 C 221.019 40.167,220.640 40.242,220.583 40.333 M262.417 40.333 C 262.360 40.425,261.609 40.500,260.740 40.500 C 259.453 40.500,259.167 40.545,259.167 40.750 C 259.167 40.939,258.963 41.000,258.333 41.000 C 257.875 41.000,257.500 41.075,257.500 41.167 C 257.500 41.258,257.322 41.333,257.104 41.333 C 256.886 41.333,256.614 41.446,256.500 41.583 C 256.386 41.721,256.133 41.839,255.938 41.846 C 255.743 41.852,255.358 42.003,255.083 42.181 C 254.808 42.358,254.452 42.549,254.292 42.605 C 254.131 42.660,254.000 42.767,254.000 42.842 C 254.000 42.916,253.852 43.025,253.671 43.082 C 253.490 43.140,253.076 43.445,252.751 43.760 C 252.426 44.075,252.087 44.333,251.997 44.333 C 251.907 44.333,251.833 44.446,251.833 44.583 C 251.833 44.721,251.773 44.833,251.700 44.833 C 251.568 44.833,250.167 46.121,250.167 46.242 C 250.167 46.277,249.867 46.627,249.500 47.020 C 249.133 47.414,248.833 47.832,248.833 47.951 C 248.833 48.070,248.758 48.167,248.667 48.167 C 248.575 48.167,248.500 48.279,248.500 48.417 C 248.500 48.554,248.387 48.667,248.250 48.667 C 248.112 48.667,248.000 48.779,248.000 48.917 C 248.000 49.054,247.925 49.167,247.833 49.167 C 247.742 49.167,247.667 49.346,247.667 49.566 C 247.667 49.785,247.554 50.008,247.417 50.060 C 247.279 50.113,247.167 50.260,247.167 50.387 C 247.167 50.513,246.979 50.970,246.750 51.401 C 246.521 51.832,246.333 52.368,246.333 52.592 C 246.333 52.844,246.237 53.000,246.083 53.000 C 245.894 53.000,245.833 53.204,245.833 53.833 C 245.833 54.292,245.758 54.667,245.667 54.667 C 245.575 54.667,245.500 54.935,245.500 55.262 C 245.500 55.589,245.387 55.970,245.250 56.107 C 245.040 56.317,245.000 57.076,245.000 60.827 C 245.000 64.647,245.036 65.312,245.250 65.394 C 245.421 65.459,245.500 65.727,245.500 66.245 C 245.500 66.660,245.575 67.000,245.667 67.000 C 245.758 67.000,245.833 67.328,245.833 67.730 C 245.833 68.175,245.931 68.540,246.083 68.667 C 246.221 68.781,246.333 69.052,246.333 69.270 C 246.333 69.488,246.408 69.667,246.500 69.667 C 246.592 69.667,246.667 69.819,246.667 70.005 C 246.667 70.191,246.779 70.387,246.917 70.440 C 247.054 70.492,247.167 70.715,247.167 70.934 C 247.167 71.178,247.264 71.333,247.417 71.333 C 247.571 71.333,247.667 71.490,247.667 71.740 C 247.667 71.964,247.742 72.193,247.833 72.250 C 247.925 72.307,248.000 72.499,248.000 72.677 C 248.000 72.854,248.112 73.000,248.250 73.000 C 248.387 73.000,248.500 73.078,248.500 73.174 C 248.500 73.270,248.688 73.550,248.917 73.797 C 249.146 74.044,249.333 74.336,249.333 74.445 C 249.333 74.553,249.521 74.790,249.750 74.970 C 249.979 75.150,250.167 75.381,250.167 75.482 C 250.167 75.584,250.247 75.667,250.345 75.667 C 250.576 75.667,251.000 76.091,251.000 76.321 C 251.000 76.420,251.112 76.500,251.250 76.500 C 251.387 76.500,251.500 76.580,251.500 76.679 C 251.500 76.871,251.909 77.333,252.079 77.333 C 252.136 77.333,252.356 77.521,252.569 77.750 C 252.781 77.979,253.115 78.167,253.311 78.167 C 253.507 78.167,253.667 78.247,253.667 78.345 C 253.667 78.634,254.116 79.000,254.470 79.000 C 254.650 79.000,254.841 79.112,254.894 79.250 C 254.946 79.387,255.133 79.500,255.308 79.500 C 255.483 79.500,255.719 79.612,255.833 79.750 C 255.947 79.887,256.182 80.000,256.354 80.000 C 256.526 80.000,256.667 80.075,256.667 80.167 C 256.667 80.258,256.921 80.333,257.232 80.333 C 257.581 80.333,257.834 80.429,257.894 80.583 C 257.957 80.748,258.218 80.833,258.661 80.833 C 259.031 80.833,259.333 80.908,259.333 81.000 C 259.333 81.106,260.691 81.167,263.073 81.167 C 265.387 81.167,266.853 81.103,266.917 81.000 C 266.973 80.908,267.345 80.833,267.742 80.833 C 268.230 80.833,268.495 80.752,268.560 80.583 C 268.620 80.426,268.875 80.333,269.245 80.333 C 269.568 80.333,269.833 80.258,269.833 80.167 C 269.833 80.075,269.986 80.000,270.172 80.000 C 270.358 80.000,270.554 79.887,270.606 79.750 C 270.659 79.612,270.874 79.500,271.083 79.500 C 271.293 79.500,271.508 79.387,271.560 79.250 C 271.613 79.112,271.809 79.000,271.995 79.000 C 272.181 79.000,272.333 78.925,272.333 78.833 C 272.333 78.742,272.446 78.667,272.583 78.667 C 272.721 78.667,272.833 78.562,272.833 78.435 C 272.833 78.307,273.023 78.155,273.254 78.097 C 273.486 78.039,274.123 77.543,274.671 76.996 C 275.219 76.448,275.704 76.000,275.750 76.000 C 275.915 76.000,275.833 81.147,275.667 81.250 C 275.575 81.307,275.500 81.724,275.500 82.177 C 275.500 82.797,275.438 83.000,275.250 83.000 C 275.094 83.000,275.000 83.157,275.000 83.417 C 275.000 83.646,274.925 83.833,274.833 83.833 C 274.742 83.833,274.667 84.013,274.667 84.232 C 274.667 84.452,274.554 84.674,274.417 84.727 C 274.279 84.780,274.167 84.975,274.167 85.161 C 274.167 85.348,274.092 85.500,274.000 85.500 C 273.908 85.500,273.833 85.604,273.833 85.732 C 273.833 85.860,273.721 86.008,273.583 86.060 C 273.446 86.113,273.333 86.309,273.333 86.495 C 273.333 86.681,273.253 86.833,273.155 86.833 C 272.924 86.833,272.500 87.257,272.500 87.488 C 272.500 87.586,272.405 87.667,272.290 87.667 C 272.174 87.667,271.938 87.854,271.766 88.083 C 271.594 88.313,271.349 88.500,271.221 88.500 C 271.094 88.500,270.946 88.612,270.894 88.750 C 270.841 88.888,270.718 89.000,270.622 89.000 C 270.324 89.000,269.167 89.556,269.167 89.699 C 269.167 89.773,268.942 89.833,268.667 89.833 C 268.392 89.833,268.167 89.908,268.167 90.000 C 268.167 90.092,267.872 90.167,267.512 90.167 C 267.152 90.167,266.745 90.279,266.607 90.417 C 266.409 90.615,265.876 90.667,264.030 90.667 C 262.115 90.667,261.685 90.622,261.606 90.417 C 261.547 90.261,261.292 90.167,260.932 90.167 C 260.613 90.167,260.307 90.092,260.250 90.000 C 260.193 89.908,259.926 89.833,259.657 89.833 C 259.332 89.833,259.167 89.749,259.167 89.583 C 259.167 89.428,259.009 89.333,258.750 89.333 C 258.521 89.333,258.333 89.258,258.333 89.167 C 258.333 89.075,258.229 89.000,258.101 89.000 C 257.973 89.000,257.826 88.888,257.773 88.750 C 257.720 88.612,257.568 88.500,257.435 88.500 C 257.169 88.500,256.167 87.568,256.167 87.321 C 256.167 87.236,256.086 87.167,255.988 87.167 C 255.706 87.167,255.098 86.403,254.892 85.792 C 254.839 85.631,254.736 85.500,254.665 85.500 C 254.594 85.500,254.489 85.313,254.432 85.083 C 254.374 84.854,254.253 84.667,254.163 84.667 C 254.074 84.667,254.000 84.479,254.000 84.250 C 254.000 83.991,253.906 83.833,253.750 83.833 C 253.612 83.833,253.500 83.721,253.500 83.583 C 253.500 83.258,252.898 83.258,252.773 83.583 C 252.718 83.728,252.468 83.833,252.182 83.833 C 251.909 83.833,251.640 83.908,251.583 84.000 C 251.527 84.092,251.332 84.167,251.152 84.167 C 250.971 84.167,250.780 84.279,250.727 84.417 C 250.674 84.554,250.456 84.667,250.242 84.667 C 250.028 84.667,249.812 84.733,249.762 84.814 C 249.711 84.896,249.407 85.012,249.085 85.072 C 248.763 85.132,248.500 85.253,248.500 85.341 C 248.500 85.428,248.313 85.500,248.083 85.500 C 247.832 85.500,247.667 85.595,247.667 85.740 C 247.667 85.897,247.451 85.998,247.042 86.032 C 246.438 86.082,245.910 87.167,246.489 87.167 C 246.587 87.167,246.667 87.319,246.667 87.505 C 246.667 87.691,246.779 87.887,246.917 87.940 C 247.054 87.992,247.167 88.215,247.167 88.434 C 247.167 88.654,247.260 88.834,247.375 88.835 C 247.590 88.836,248.000 89.567,248.000 89.950 C 248.000 90.069,248.112 90.167,248.250 90.167 C 248.387 90.167,248.500 90.279,248.500 90.417 C 248.500 90.554,248.570 90.667,248.655 90.667 C 248.741 90.667,248.856 90.810,248.912 90.985 C 249.038 91.382,251.556 94.000,251.812 94.000 C 251.915 94.000,252.000 94.077,252.000 94.172 C 252.000 94.266,252.130 94.394,252.288 94.454 C 252.446 94.515,252.736 94.738,252.932 94.949 C 253.128 95.160,253.414 95.333,253.569 95.333 C 253.723 95.333,254.023 95.521,254.235 95.750 C 254.448 95.979,254.787 96.167,254.989 96.167 C 255.192 96.167,255.470 96.279,255.607 96.417 C 255.745 96.554,256.039 96.667,256.262 96.667 C 256.485 96.667,256.667 96.742,256.667 96.833 C 256.667 96.925,256.921 97.000,257.232 97.000 C 257.581 97.000,257.834 97.096,257.894 97.250 C 257.959 97.420,258.224 97.500,258.719 97.500 C 259.120 97.500,259.685 97.618,259.973 97.762 C 260.659 98.104,267.843 98.056,267.959 97.708 C 268.000 97.584,268.321 97.500,268.752 97.500 C 269.174 97.500,269.581 97.396,269.726 97.250 C 269.864 97.112,270.240 97.000,270.562 97.000 C 270.884 97.000,271.193 96.925,271.250 96.833 C 271.307 96.742,271.576 96.667,271.848 96.667 C 272.135 96.667,272.384 96.561,272.440 96.417 C 272.492 96.279,272.715 96.167,272.934 96.167 C 273.154 96.167,273.333 96.092,273.333 96.000 C 273.333 95.908,273.486 95.833,273.672 95.833 C 273.858 95.833,274.054 95.721,274.106 95.583 C 274.159 95.446,274.354 95.333,274.540 95.333 C 274.726 95.333,275.052 95.146,275.265 94.917 C 275.477 94.688,275.756 94.500,275.885 94.500 C 276.014 94.500,276.261 94.313,276.433 94.083 C 276.605 93.854,276.840 93.667,276.956 93.667 C 277.072 93.667,277.167 93.554,277.167 93.417 C 277.167 93.279,277.314 93.167,277.494 93.167 C 277.837 93.167,278.833 92.303,278.833 92.006 C 278.833 91.911,278.919 91.833,279.023 91.833 C 279.279 91.833,279.655 91.319,279.661 90.958 C 279.664 90.798,279.779 90.667,279.917 90.667 C 280.054 90.667,280.167 90.562,280.167 90.434 C 280.167 90.307,280.279 90.159,280.417 90.106 C 280.554 90.054,280.667 89.858,280.667 89.672 C 280.667 89.486,280.742 89.333,280.833 89.333 C 280.925 89.333,281.000 89.221,281.000 89.083 C 281.000 88.946,281.074 88.833,281.163 88.833 C 281.253 88.833,281.374 88.646,281.432 88.417 C 281.489 88.188,281.603 88.000,281.685 88.000 C 281.766 88.000,281.833 87.773,281.833 87.495 C 281.833 87.199,281.937 86.950,282.083 86.894 C 282.224 86.840,282.333 86.591,282.333 86.325 C 282.333 86.066,282.408 85.807,282.500 85.750 C 282.592 85.693,282.667 85.314,282.667 84.907 C 282.667 84.360,282.732 84.167,282.917 84.167 C 283.114 84.167,283.168 83.928,283.172 83.042 C 283.175 82.318,283.265 81.801,283.422 81.593 C 283.674 81.260,283.814 42.245,283.566 41.597 C 283.478 41.368,282.990 41.333,279.821 41.333 C 275.503 41.333,275.833 41.127,275.833 43.822 C 275.833 45.965,275.895 45.902,274.849 44.833 C 274.400 44.375,273.951 44.000,273.850 44.000 C 273.749 44.000,273.667 43.887,273.667 43.750 C 273.667 43.612,273.535 43.499,273.375 43.497 C 273.215 43.496,272.907 43.308,272.691 43.080 C 272.475 42.853,272.164 42.667,272.000 42.667 C 271.836 42.667,271.659 42.554,271.606 42.417 C 271.554 42.279,271.396 42.167,271.255 42.167 C 271.115 42.167,271.000 42.092,271.000 42.000 C 271.000 41.908,270.737 41.833,270.417 41.833 C 270.009 41.833,269.833 41.758,269.833 41.583 C 269.833 41.428,269.676 41.333,269.417 41.333 C 269.188 41.333,269.000 41.258,269.000 41.167 C 269.000 41.075,268.709 41.000,268.354 41.000 C 267.983 41.000,267.619 40.894,267.500 40.750 C 267.341 40.559,266.907 40.500,265.656 40.500 C 264.745 40.500,263.974 40.426,263.917 40.333 C 263.860 40.242,263.523 40.167,263.167 40.167 C 262.811 40.167,262.473 40.242,262.417 40.333 M306.500 40.333 C 306.500 40.433,305.861 40.500,304.917 40.500 C 303.620 40.500,303.333 40.545,303.333 40.750 C 303.333 40.939,303.130 41.000,302.500 41.000 C 302.042 41.000,301.667 41.075,301.667 41.167 C 301.667 41.258,301.488 41.333,301.270 41.333 C 301.052 41.333,300.781 41.446,300.667 41.583 C 300.553 41.721,300.300 41.839,300.105 41.846 C 299.910 41.852,299.525 42.003,299.250 42.181 C 298.975 42.358,298.619 42.549,298.458 42.605 C 298.298 42.660,298.167 42.767,298.167 42.842 C 298.167 42.916,298.019 43.025,297.837 43.082 C 297.656 43.140,297.242 43.445,296.918 43.760 C 296.593 44.075,296.254 44.333,296.164 44.333 C 296.074 44.333,296.000 44.446,296.000 44.583 C 296.000 44.721,295.940 44.833,295.867 44.833 C 295.674 44.833,294.333 46.150,294.333 46.340 C 294.333 46.428,294.221 46.500,294.083 46.500 C 293.946 46.500,293.833 46.578,293.833 46.674 C 293.833 46.770,293.646 47.050,293.417 47.297 C 293.188 47.544,293.000 47.841,293.000 47.957 C 293.000 48.072,292.925 48.167,292.833 48.167 C 292.742 48.167,292.667 48.279,292.667 48.417 C 292.667 48.554,292.554 48.667,292.417 48.667 C 292.279 48.667,292.167 48.779,292.167 48.917 C 292.167 49.054,292.092 49.167,292.000 49.167 C 291.908 49.167,291.833 49.346,291.833 49.566 C 291.833 49.785,291.721 50.008,291.583 50.060 C 291.446 50.113,291.333 50.260,291.333 50.387 C 291.333 50.513,291.146 50.970,290.917 51.401 C 290.688 51.832,290.500 52.368,290.500 52.592 C 290.500 52.844,290.404 53.000,290.250 53.000 C 290.061 53.000,290.000 53.204,290.000 53.833 C 290.000 54.292,289.925 54.667,289.833 54.667 C 289.742 54.667,289.667 54.935,289.667 55.262 C 289.667 55.589,289.554 55.970,289.417 56.107 C 289.207 56.317,289.167 57.076,289.167 60.827 C 289.167 64.647,289.203 65.312,289.417 65.394 C 289.588 65.459,289.667 65.727,289.667 66.245 C 289.667 66.660,289.742 67.000,289.833 67.000 C 289.925 67.000,290.000 67.367,290.000 67.816 C 290.000 68.387,290.075 68.660,290.250 68.727 C 290.387 68.780,290.500 69.013,290.500 69.245 C 290.500 69.477,290.575 69.667,290.667 69.667 C 290.758 69.667,290.833 69.819,290.833 70.005 C 290.833 70.191,290.946 70.387,291.083 70.440 C 291.221 70.492,291.333 70.715,291.333 70.934 C 291.333 71.154,291.394 71.333,291.468 71.333 C 291.615 71.333,292.167 72.495,292.167 72.806 C 292.167 72.913,292.279 73.000,292.417 73.000 C 292.554 73.000,292.667 73.078,292.667 73.174 C 292.667 73.269,292.822 73.513,293.011 73.715 C 293.200 73.918,293.471 74.327,293.613 74.625 C 293.755 74.923,293.975 75.167,294.102 75.167 C 294.229 75.167,294.333 75.279,294.333 75.417 C 294.333 75.554,294.414 75.667,294.512 75.667 C 294.743 75.667,295.167 76.091,295.167 76.321 C 295.167 76.420,295.279 76.500,295.417 76.500 C 295.554 76.500,295.667 76.580,295.667 76.679 C 295.667 76.871,296.076 77.333,296.246 77.333 C 296.303 77.333,296.523 77.521,296.735 77.750 C 296.948 77.979,297.282 78.167,297.477 78.167 C 297.673 78.167,297.833 78.247,297.833 78.345 C 297.833 78.639,298.286 79.000,298.655 79.000 C 298.851 79.000,299.000 79.108,299.000 79.250 C 299.000 79.392,299.149 79.500,299.345 79.500 C 299.535 79.500,299.803 79.612,299.940 79.750 C 300.078 79.887,300.335 80.000,300.512 80.000 C 300.689 80.000,300.833 80.075,300.833 80.167 C 300.833 80.258,301.088 80.333,301.399 80.333 C 301.748 80.333,302.001 80.429,302.060 80.583 C 302.124 80.748,302.385 80.833,302.828 80.833 C 303.198 80.833,303.500 80.908,303.500 81.000 C 303.500 81.106,304.858 81.167,307.240 81.167 C 309.554 81.167,311.020 81.103,311.083 81.000 C 311.140 80.908,311.511 80.833,311.909 80.833 C 312.397 80.833,312.662 80.752,312.727 80.583 C 312.787 80.426,313.042 80.333,313.411 80.333 C 313.735 80.333,314.000 80.258,314.000 80.167 C 314.000 80.075,314.152 80.000,314.339 80.000 C 314.525 80.000,314.720 79.887,314.773 79.750 C 314.826 79.612,315.040 79.500,315.250 79.500 C 315.460 79.500,315.674 79.387,315.727 79.250 C 315.780 79.112,315.975 79.000,316.161 79.000 C 316.348 79.000,316.500 78.925,316.500 78.833 C 316.500 78.742,316.612 78.667,316.750 78.667 C 316.887 78.667,317.000 78.572,317.000 78.457 C 317.000 78.342,317.244 78.141,317.542 78.010 C 317.840 77.879,318.474 77.373,318.951 76.886 C 319.428 76.399,319.860 76.000,319.909 76.000 C 320.079 76.000,320.005 81.144,319.833 81.250 C 319.742 81.307,319.667 81.724,319.667 82.177 C 319.667 82.797,319.605 83.000,319.417 83.000 C 319.261 83.000,319.167 83.157,319.167 83.417 C 319.167 83.646,319.092 83.833,319.000 83.833 C 318.908 83.833,318.833 84.013,318.833 84.232 C 318.833 84.452,318.721 84.674,318.583 84.727 C 318.446 84.780,318.333 84.941,318.333 85.085 C 318.333 85.230,318.146 85.550,317.917 85.797 C 317.688 86.044,317.500 86.379,317.500 86.540 C 317.500 86.701,317.420 86.833,317.321 86.833 C 317.091 86.833,316.667 87.257,316.667 87.488 C 316.667 87.586,316.572 87.667,316.456 87.667 C 316.340 87.667,316.105 87.854,315.933 88.083 C 315.761 88.313,315.480 88.500,315.310 88.500 C 315.139 88.500,315.000 88.612,315.000 88.750 C 315.000 88.888,314.913 89.000,314.806 89.000 C 314.495 89.000,313.333 89.551,313.333 89.699 C 313.333 89.773,313.108 89.833,312.833 89.833 C 312.558 89.833,312.333 89.908,312.333 90.000 C 312.333 90.092,312.039 90.167,311.679 90.167 C 311.318 90.167,310.911 90.279,310.774 90.417 C 310.575 90.615,310.043 90.667,308.196 90.667 C 306.281 90.667,305.852 90.622,305.773 90.417 C 305.713 90.261,305.459 90.167,305.098 90.167 C 304.780 90.167,304.473 90.092,304.417 90.000 C 304.360 89.908,304.101 89.833,303.841 89.833 C 303.575 89.833,303.327 89.724,303.273 89.583 C 303.220 89.446,303.025 89.333,302.839 89.333 C 302.652 89.333,302.500 89.258,302.500 89.167 C 302.500 89.075,302.396 89.000,302.268 89.000 C 302.140 89.000,301.992 88.888,301.940 88.750 C 301.887 88.612,301.735 88.500,301.601 88.500 C 301.336 88.500,300.333 87.568,300.333 87.321 C 300.333 87.236,300.253 87.167,300.155 87.167 C 299.894 87.167,299.372 86.537,299.050 85.833 C 298.987 85.696,298.837 85.484,298.718 85.363 C 298.598 85.242,298.500 85.036,298.500 84.905 C 298.500 84.774,298.425 84.667,298.333 84.667 C 298.242 84.667,298.167 84.479,298.167 84.250 C 298.167 83.991,298.072 83.833,297.917 83.833 C 297.779 83.833,297.667 83.721,297.667 83.583 C 297.667 83.446,297.525 83.333,297.351 83.333 C 297.178 83.333,296.992 83.446,296.940 83.583 C 296.884 83.728,296.635 83.833,296.348 83.833 C 296.076 83.833,295.807 83.908,295.750 84.000 C 295.693 84.092,295.499 84.167,295.318 84.167 C 295.137 84.167,294.946 84.279,294.894 84.417 C 294.839 84.559,294.590 84.667,294.316 84.667 C 294.050 84.667,293.833 84.733,293.833 84.815 C 293.833 84.896,293.571 85.012,293.250 85.072 C 292.929 85.133,292.667 85.253,292.667 85.341 C 292.667 85.428,292.479 85.500,292.250 85.500 C 291.999 85.500,291.833 85.595,291.833 85.740 C 291.833 85.897,291.617 85.998,291.208 86.032 C 290.605 86.082,290.077 87.167,290.656 87.167 C 290.754 87.167,290.833 87.319,290.833 87.505 C 290.833 87.691,290.946 87.887,291.083 87.940 C 291.221 87.992,291.333 88.174,291.333 88.343 C 291.333 88.511,291.521 88.852,291.750 89.099 C 291.979 89.346,292.167 89.688,292.167 89.858 C 292.167 90.028,292.279 90.167,292.417 90.167 C 292.554 90.167,292.667 90.279,292.667 90.417 C 292.667 90.554,292.737 90.667,292.822 90.667 C 292.908 90.667,293.025 90.817,293.084 91.002 C 293.213 91.408,295.717 94.000,295.980 94.000 C 296.083 94.000,296.167 94.077,296.167 94.172 C 296.167 94.266,296.296 94.394,296.455 94.454 C 296.613 94.515,296.903 94.738,297.099 94.949 C 297.295 95.160,297.615 95.333,297.811 95.333 C 298.016 95.333,298.167 95.439,298.167 95.583 C 298.167 95.721,298.279 95.833,298.417 95.833 C 298.554 95.833,298.667 95.908,298.667 96.000 C 298.667 96.092,298.845 96.167,299.063 96.167 C 299.281 96.167,299.553 96.279,299.667 96.417 C 299.781 96.554,300.090 96.667,300.354 96.667 C 300.618 96.667,300.833 96.742,300.833 96.833 C 300.833 96.925,301.088 97.000,301.399 97.000 C 301.748 97.000,302.001 97.096,302.060 97.250 C 302.125 97.420,302.391 97.500,302.886 97.500 C 303.287 97.500,303.851 97.618,304.140 97.762 C 304.826 98.104,312.010 98.056,312.125 97.708 C 312.166 97.584,312.487 97.500,312.919 97.500 C 313.340 97.500,313.747 97.396,313.893 97.250 C 314.030 97.112,314.406 97.000,314.728 97.000 C 315.050 97.000,315.360 96.925,315.417 96.833 C 315.473 96.742,315.732 96.667,315.992 96.667 C 316.258 96.667,316.506 96.558,316.560 96.417 C 316.613 96.279,316.846 96.167,317.078 96.167 C 317.310 96.167,317.500 96.092,317.500 96.000 C 317.500 95.908,317.652 95.833,317.839 95.833 C 318.025 95.833,318.220 95.721,318.273 95.583 C 318.326 95.446,318.521 95.333,318.707 95.333 C 318.893 95.333,319.219 95.146,319.431 94.917 C 319.644 94.688,319.923 94.500,320.052 94.500 C 320.181 94.500,320.427 94.313,320.600 94.083 C 320.772 93.854,321.007 93.667,321.123 93.667 C 321.239 93.667,321.333 93.554,321.333 93.417 C 321.333 93.279,321.478 93.167,321.654 93.167 C 321.978 93.167,323.000 92.271,323.000 91.987 C 323.000 91.903,323.085 91.833,323.190 91.833 C 323.446 91.833,323.821 91.319,323.828 90.958 C 323.831 90.798,323.946 90.667,324.083 90.667 C 324.221 90.667,324.333 90.562,324.333 90.434 C 324.333 90.307,324.446 90.159,324.583 90.106 C 324.721 90.054,324.833 89.858,324.833 89.672 C 324.833 89.486,324.908 89.333,325.000 89.333 C 325.092 89.333,325.167 89.221,325.167 89.083 C 325.167 88.946,325.240 88.833,325.330 88.833 C 325.420 88.833,325.541 88.646,325.598 88.417 C 325.656 88.188,325.770 88.000,325.851 88.000 C 325.933 88.000,326.000 87.773,326.000 87.495 C 326.000 87.199,326.104 86.950,326.250 86.894 C 326.391 86.840,326.500 86.591,326.500 86.325 C 326.500 86.066,326.575 85.807,326.667 85.750 C 326.758 85.693,326.833 85.314,326.833 84.907 C 326.833 84.360,326.899 84.167,327.083 84.167 C 327.279 84.167,327.333 83.937,327.333 83.102 C 327.333 82.482,327.437 81.839,327.582 81.561 C 327.838 81.070,327.979 42.643,327.728 41.708 C 327.628 41.334,327.621 41.333,324.014 41.333 C 319.673 41.333,320.000 41.141,320.000 43.700 C 320.000 45.979,320.065 45.904,319.016 44.833 C 318.567 44.375,318.117 44.000,318.017 44.000 C 317.916 44.000,317.833 43.887,317.833 43.750 C 317.833 43.612,317.702 43.499,317.542 43.497 C 317.381 43.496,317.073 43.308,316.858 43.080 C 316.642 42.853,316.331 42.667,316.167 42.667 C 316.003 42.667,315.826 42.554,315.773 42.417 C 315.720 42.279,315.562 42.167,315.422 42.167 C 315.282 42.167,315.167 42.092,315.167 42.000 C 315.167 41.908,314.904 41.833,314.583 41.833 C 314.176 41.833,314.000 41.758,314.000 41.583 C 314.000 41.428,313.843 41.333,313.583 41.333 C 313.354 41.333,313.167 41.258,313.167 41.167 C 313.167 41.075,312.876 41.000,312.520 41.000 C 312.149 41.000,311.786 40.894,311.667 40.750 C 311.508 40.559,311.074 40.500,309.823 40.500 C 308.912 40.500,308.141 40.426,308.083 40.333 C 308.027 40.242,307.647 40.167,307.240 40.167 C 306.833 40.167,306.500 40.242,306.500 40.333 M351.250 40.333 C 351.192 40.427,350.385 40.500,349.402 40.500 C 348.004 40.500,347.637 40.550,347.560 40.750 C 347.495 40.919,347.230 41.000,346.742 41.000 C 346.345 41.000,345.973 41.075,345.917 41.167 C 345.860 41.258,345.631 41.333,345.407 41.333 C 345.156 41.333,345.000 41.429,345.000 41.583 C 345.000 41.750,344.833 41.833,344.500 41.833 C 344.225 41.833,344.000 41.908,344.000 42.000 C 344.000 42.092,343.848 42.167,343.661 42.167 C 343.475 42.167,343.280 42.279,343.227 42.417 C 343.174 42.554,342.952 42.667,342.732 42.667 C 342.513 42.667,342.333 42.737,342.333 42.822 C 342.333 42.908,342.185 43.025,342.004 43.082 C 341.823 43.140,341.409 43.445,341.084 43.760 C 340.760 44.075,340.420 44.333,340.330 44.333 C 340.240 44.333,340.167 44.433,340.167 44.555 C 340.167 44.677,339.998 44.871,339.792 44.985 C 339.585 45.099,339.192 45.483,338.917 45.839 C 338.642 46.194,338.323 46.488,338.208 46.492 C 338.094 46.497,338.000 46.612,338.000 46.750 C 338.000 46.887,337.925 47.000,337.833 47.000 C 337.742 47.000,337.667 47.078,337.667 47.174 C 337.667 47.337,337.536 47.526,337.042 48.077 C 336.927 48.205,336.833 48.390,336.833 48.488 C 336.833 48.586,336.721 48.667,336.583 48.667 C 336.446 48.667,336.333 48.807,336.333 48.980 C 336.333 49.152,336.221 49.386,336.083 49.500 C 335.946 49.614,335.833 49.848,335.833 50.020 C 335.833 50.193,335.758 50.333,335.667 50.333 C 335.575 50.333,335.500 50.513,335.500 50.732 C 335.500 50.952,335.387 51.174,335.250 51.227 C 335.112 51.280,335.000 51.471,335.000 51.652 C 335.000 51.832,334.925 52.027,334.833 52.083 C 334.742 52.140,334.667 52.361,334.667 52.575 C 334.667 52.789,334.554 53.008,334.417 53.060 C 334.245 53.126,334.167 53.394,334.167 53.911 C 334.167 54.327,334.092 54.667,334.000 54.667 C 333.908 54.667,333.833 55.042,333.833 55.500 C 333.833 56.130,333.772 56.333,333.583 56.333 C 333.367 56.333,333.333 56.943,333.333 60.821 C 333.333 64.589,333.373 65.350,333.583 65.560 C 333.721 65.697,333.833 66.077,333.833 66.405 C 333.833 66.732,333.908 67.000,334.000 67.000 C 334.092 67.000,334.167 67.377,334.167 67.839 C 334.167 68.430,334.240 68.705,334.417 68.773 C 334.554 68.826,334.667 69.012,334.667 69.187 C 334.667 69.476,334.797 69.801,335.194 70.500 C 335.272 70.637,335.382 70.862,335.438 71.000 C 335.934 72.207,336.082 72.500,336.199 72.500 C 336.273 72.500,336.333 72.612,336.333 72.750 C 336.333 72.887,336.446 73.000,336.583 73.000 C 336.721 73.000,336.833 73.112,336.833 73.250 C 336.833 73.387,336.908 73.500,337.000 73.500 C 337.092 73.500,337.167 73.601,337.167 73.724 C 337.167 73.847,337.354 74.166,337.583 74.432 C 337.812 74.699,338.000 74.973,338.000 75.042 C 338.000 75.110,338.112 75.167,338.250 75.167 C 338.387 75.167,338.500 75.247,338.500 75.345 C 338.500 75.576,338.924 76.000,339.155 76.000 C 339.253 76.000,339.333 76.112,339.333 76.250 C 339.333 76.387,339.446 76.500,339.583 76.500 C 339.721 76.500,339.833 76.580,339.833 76.679 C 339.833 76.861,340.239 77.333,340.396 77.333 C 340.444 77.333,340.685 77.521,340.932 77.750 C 341.180 77.979,341.521 78.167,341.691 78.167 C 341.861 78.167,342.000 78.279,342.000 78.417 C 342.000 78.554,342.124 78.667,342.276 78.667 C 342.428 78.667,342.798 78.854,343.098 79.083 C 343.399 79.313,343.743 79.502,343.864 79.505 C 343.985 79.508,344.229 79.621,344.407 79.755 C 344.585 79.890,344.866 80.000,345.032 80.000 C 345.198 80.000,345.333 80.075,345.333 80.167 C 345.333 80.258,345.625 80.333,345.982 80.333 C 346.405 80.333,346.664 80.420,346.727 80.583 C 346.792 80.754,347.059 80.833,347.568 80.833 C 347.978 80.833,348.360 80.908,348.417 81.000 C 348.481 81.104,350.085 81.167,352.677 81.167 C 355.337 81.167,356.833 81.107,356.833 81.000 C 356.833 80.907,357.280 80.833,357.839 80.833 C 358.578 80.833,358.869 80.767,358.940 80.583 C 358.998 80.430,359.251 80.333,359.591 80.333 C 359.897 80.333,360.193 80.258,360.250 80.167 C 360.307 80.075,360.501 80.000,360.682 80.000 C 360.863 80.000,361.054 79.887,361.106 79.750 C 361.159 79.612,361.382 79.500,361.601 79.500 C 361.845 79.500,362.000 79.403,362.000 79.250 C 362.000 79.094,362.157 79.000,362.417 79.000 C 362.646 79.000,362.833 78.933,362.833 78.851 C 362.833 78.770,363.021 78.656,363.250 78.598 C 363.479 78.541,363.667 78.420,363.667 78.330 C 363.667 78.240,363.752 78.167,363.855 78.167 C 363.959 78.167,364.292 77.904,364.594 77.583 C 364.897 77.262,365.200 77.000,365.269 77.000 C 365.395 77.000,366.833 75.513,366.833 75.382 C 366.833 75.343,367.077 75.072,367.375 74.779 C 367.957 74.208,368.286 73.750,368.438 73.303 C 368.490 73.149,368.638 72.983,368.766 72.933 C 368.895 72.884,369.000 72.691,369.000 72.505 C 369.000 72.319,369.075 72.167,369.167 72.167 C 369.258 72.167,369.333 71.987,369.333 71.768 C 369.333 71.548,369.446 71.326,369.583 71.273 C 370.083 71.081,369.895 70.171,369.333 70.058 C 369.058 70.003,368.833 69.893,368.833 69.813 C 368.833 69.732,368.655 69.667,368.437 69.667 C 368.219 69.667,367.947 69.554,367.833 69.417 C 367.719 69.279,367.452 69.167,367.239 69.167 C 367.027 69.167,366.807 69.092,366.750 69.000 C 366.693 68.908,366.472 68.833,366.258 68.833 C 366.044 68.833,365.826 68.721,365.773 68.583 C 365.717 68.437,365.467 68.333,365.172 68.333 C 364.894 68.333,364.667 68.258,364.667 68.167 C 364.667 68.075,364.477 68.000,364.245 68.000 C 364.013 68.000,363.780 67.887,363.727 67.750 C 363.552 67.295,362.500 67.423,362.500 67.899 C 362.500 68.118,362.387 68.341,362.250 68.394 C 362.113 68.446,362.000 68.642,362.000 68.828 C 362.000 69.014,361.925 69.167,361.833 69.167 C 361.742 69.167,361.667 69.279,361.667 69.417 C 361.667 69.554,361.593 69.667,361.503 69.667 C 361.413 69.667,361.293 69.854,361.235 70.083 C 361.178 70.313,361.064 70.500,360.982 70.500 C 360.900 70.500,360.833 70.612,360.833 70.750 C 360.833 70.887,360.753 71.000,360.655 71.000 C 360.424 71.000,360.000 71.424,360.000 71.655 C 360.000 71.753,359.887 71.833,359.750 71.833 C 359.613 71.833,359.500 71.900,359.500 71.982 C 359.500 72.064,359.313 72.178,359.083 72.235 C 358.854 72.293,358.667 72.413,358.667 72.503 C 358.667 72.593,358.579 72.667,358.473 72.667 C 358.162 72.667,357.000 73.218,357.000 73.365 C 357.000 73.439,356.700 73.500,356.333 73.500 C 355.852 73.500,355.667 73.569,355.667 73.750 C 355.667 73.961,355.271 74.000,353.104 74.000 C 351.029 74.000,350.501 73.952,350.333 73.750 C 350.216 73.609,349.853 73.500,349.500 73.500 C 349.147 73.500,348.784 73.391,348.667 73.250 C 348.553 73.112,348.318 73.000,348.146 73.000 C 347.974 73.000,347.833 72.925,347.833 72.833 C 347.833 72.742,347.646 72.667,347.417 72.667 C 347.157 72.667,347.000 72.572,347.000 72.417 C 347.000 72.279,346.887 72.167,346.750 72.167 C 346.613 72.167,346.500 72.092,346.500 72.000 C 346.500 71.908,346.384 71.833,346.242 71.833 C 346.100 71.833,345.810 71.646,345.598 71.417 C 345.386 71.188,345.127 71.000,345.023 71.000 C 344.918 71.000,344.833 70.920,344.833 70.822 C 344.833 70.724,344.571 70.397,344.250 70.094 C 343.929 69.792,343.667 69.459,343.667 69.355 C 343.667 69.252,343.554 69.167,343.417 69.167 C 343.261 69.167,343.167 69.009,343.167 68.750 C 343.167 68.521,343.100 68.333,343.018 68.333 C 342.936 68.333,342.822 68.146,342.765 67.917 C 342.707 67.688,342.587 67.500,342.497 67.500 C 342.407 67.500,342.333 67.313,342.333 67.083 C 342.333 66.824,342.239 66.667,342.083 66.667 C 341.903 66.667,341.833 66.481,341.833 66.000 C 341.833 65.633,341.758 65.333,341.667 65.333 C 341.574 65.333,341.500 64.895,341.500 64.351 C 341.500 63.632,341.433 63.343,341.250 63.273 C 341.112 63.220,341.000 62.987,341.000 62.755 L 341.000 62.333 356.000 62.333 L 371.000 62.333 371.000 60.250 C 371.000 58.972,370.936 58.167,370.833 58.167 C 370.735 58.167,370.667 57.561,370.667 56.684 C 370.667 55.521,370.613 55.182,370.417 55.106 C 370.245 55.041,370.167 54.773,370.167 54.253 C 370.167 53.836,370.096 53.365,370.009 53.206 C 369.922 53.047,369.807 52.635,369.752 52.292 C 369.697 51.948,369.580 51.667,369.492 51.667 C 369.405 51.667,369.333 51.479,369.333 51.250 C 369.333 51.021,369.266 50.833,369.185 50.833 C 369.103 50.833,368.989 50.646,368.932 50.417 C 368.874 50.188,368.753 50.000,368.663 50.000 C 368.574 50.000,368.500 49.821,368.500 49.601 C 368.500 49.382,368.387 49.159,368.250 49.106 C 368.113 49.054,367.998 48.877,367.995 48.714 C 367.989 48.375,367.621 47.833,367.397 47.833 C 367.315 47.833,367.143 47.597,367.016 47.308 C 366.888 47.019,366.494 46.494,366.142 46.142 C 365.789 45.789,365.500 45.425,365.500 45.333 C 365.500 45.242,365.420 45.167,365.322 45.167 C 365.224 45.167,364.897 44.904,364.594 44.583 C 364.292 44.262,363.967 44.000,363.873 44.000 C 363.779 44.000,363.659 43.887,363.606 43.750 C 363.554 43.612,363.358 43.500,363.172 43.500 C 362.986 43.500,362.833 43.424,362.833 43.331 C 362.833 43.237,362.552 43.031,362.208 42.872 C 361.865 42.713,361.484 42.490,361.363 42.375 C 361.242 42.260,361.036 42.167,360.905 42.167 C 360.774 42.167,360.667 42.092,360.667 42.000 C 360.667 41.908,360.487 41.833,360.268 41.833 C 360.048 41.833,359.826 41.721,359.773 41.583 C 359.707 41.412,359.439 41.333,358.922 41.333 C 358.507 41.333,358.167 41.258,358.167 41.167 C 358.167 41.075,357.875 41.000,357.518 41.000 C 357.095 41.000,356.836 40.913,356.773 40.750 C 356.695 40.547,356.302 40.500,354.682 40.500 C 353.531 40.500,352.643 40.429,352.583 40.333 C 352.527 40.242,352.227 40.167,351.917 40.167 C 351.607 40.167,351.307 40.242,351.250 40.333 M393.000 40.750 C 393.000 40.942,392.787 41.000,392.083 41.000 C 391.579 41.000,391.167 41.075,391.167 41.167 C 391.167 41.258,390.939 41.333,390.661 41.333 C 390.366 41.333,390.116 41.437,390.060 41.583 C 390.008 41.721,389.785 41.833,389.566 41.833 C 389.346 41.833,389.167 41.900,389.167 41.982 C 389.167 42.064,388.979 42.178,388.750 42.235 C 388.521 42.293,388.333 42.413,388.333 42.503 C 388.333 42.593,388.221 42.667,388.083 42.667 C 387.946 42.667,387.833 42.734,387.833 42.815 C 387.833 42.897,387.646 43.011,387.417 43.068 C 387.188 43.126,387.000 43.247,387.000 43.337 C 387.000 43.426,386.887 43.500,386.750 43.500 C 386.613 43.500,386.500 43.612,386.500 43.750 C 386.500 43.887,386.420 44.000,386.321 44.000 C 386.091 44.000,385.667 44.424,385.667 44.655 C 385.667 44.753,385.586 44.833,385.488 44.833 C 385.257 44.833,384.833 45.257,384.833 45.488 C 384.833 45.586,384.760 45.667,384.670 45.667 C 384.580 45.667,384.459 45.854,384.402 46.083 C 384.154 47.070,384.000 46.340,384.000 44.180 C 384.000 41.009,384.430 41.333,380.232 41.333 L 376.667 41.333 376.667 60.667 L 376.667 80.000 380.500 80.000 L 384.333 80.000 384.333 68.655 C 384.333 58.792,384.366 57.277,384.583 57.060 C 384.721 56.922,384.833 56.515,384.833 56.155 C 384.833 55.795,384.908 55.500,385.000 55.500 C 385.092 55.500,385.167 55.200,385.167 54.833 C 385.167 54.352,385.236 54.167,385.417 54.167 C 385.572 54.167,385.667 54.009,385.667 53.750 C 385.667 53.521,385.742 53.333,385.833 53.333 C 385.925 53.333,386.000 53.221,386.000 53.083 C 386.000 52.946,386.113 52.833,386.250 52.833 C 386.387 52.833,386.500 52.694,386.500 52.523 C 386.500 52.353,386.688 52.073,386.917 51.900 C 387.146 51.728,387.333 51.493,387.333 51.377 C 387.333 51.261,387.414 51.167,387.512 51.167 C 387.723 51.167,388.167 50.750,388.167 50.551 C 388.167 50.475,388.467 50.282,388.833 50.123 C 389.200 49.964,389.500 49.759,389.500 49.667 C 389.500 49.575,389.688 49.500,389.917 49.500 C 390.176 49.500,390.333 49.406,390.333 49.250 C 390.333 49.075,390.509 49.000,390.917 49.000 C 391.238 49.000,391.500 48.925,391.500 48.833 C 391.500 48.729,392.500 48.667,394.167 48.667 C 395.833 48.667,396.833 48.729,396.833 48.833 C 396.833 48.925,397.096 49.000,397.417 49.000 C 397.928 49.000,398.000 48.948,398.000 48.583 C 398.000 48.324,398.094 48.167,398.250 48.167 C 398.414 48.167,398.500 48.002,398.500 47.687 C 398.500 47.423,398.613 47.114,398.750 47.000 C 398.887 46.886,399.000 46.614,399.000 46.396 C 399.000 46.178,399.075 46.000,399.167 46.000 C 399.258 46.000,399.333 45.847,399.333 45.661 C 399.333 45.474,399.462 45.126,399.618 44.887 C 400.100 44.151,400.154 41.333,399.687 41.333 C 399.492 41.333,399.333 41.258,399.333 41.167 C 399.333 41.074,398.885 41.000,398.321 41.000 C 397.644 41.000,397.227 40.917,397.060 40.750 C 396.866 40.557,396.376 40.500,394.905 40.500 C 393.323 40.500,393.000 40.542,393.000 40.750 M224.083 48.000 C 224.140 48.092,224.444 48.167,224.760 48.167 C 225.075 48.167,225.333 48.227,225.333 48.301 C 225.333 48.444,226.491 49.000,226.788 49.000 C 226.885 49.000,227.008 49.112,227.060 49.250 C 227.113 49.387,227.268 49.500,227.406 49.500 C 227.543 49.500,227.869 49.706,228.130 49.958 C 228.391 50.210,228.918 50.689,229.302 51.023 C 229.686 51.356,230.000 51.712,230.000 51.814 C 230.000 51.916,230.112 52.000,230.250 52.000 C 230.387 52.000,230.500 52.085,230.500 52.189 C 230.500 52.293,230.688 52.552,230.917 52.765 C 231.146 52.977,231.333 53.262,231.333 53.399 C 231.333 53.535,231.408 53.693,231.500 53.750 C 231.592 53.807,231.667 54.001,231.667 54.182 C 231.667 54.363,231.779 54.554,231.917 54.606 C 232.054 54.659,232.167 54.882,232.167 55.101 C 232.167 55.345,232.264 55.500,232.417 55.500 C 232.606 55.500,232.667 55.704,232.667 56.333 C 232.667 56.792,232.742 57.167,232.833 57.167 C 232.929 57.167,233.000 57.688,233.000 58.396 C 233.000 59.286,233.069 59.683,233.250 59.833 C 233.404 59.961,233.500 60.327,233.500 60.782 C 233.500 61.219,233.397 61.627,233.250 61.774 C 233.073 61.951,233.000 62.384,233.000 63.262 C 233.000 63.976,232.929 64.500,232.833 64.500 C 232.742 64.500,232.667 64.875,232.667 65.333 C 232.667 65.963,232.606 66.167,232.417 66.167 C 232.260 66.167,232.167 66.325,232.167 66.589 C 232.167 66.821,232.054 67.054,231.917 67.106 C 231.779 67.159,231.667 67.382,231.667 67.601 C 231.667 67.821,231.592 68.000,231.500 68.000 C 231.408 68.000,231.333 68.078,231.333 68.174 C 231.333 68.337,231.203 68.526,230.708 69.077 C 230.594 69.205,230.500 69.390,230.500 69.488 C 230.500 69.586,230.387 69.667,230.250 69.667 C 230.112 69.667,230.000 69.747,230.000 69.845 C 230.000 70.076,229.576 70.500,229.345 70.500 C 229.247 70.500,229.167 70.612,229.167 70.750 C 229.167 70.887,229.086 71.000,228.988 71.000 C 228.757 71.000,228.333 71.424,228.333 71.655 C 228.333 71.753,228.221 71.833,228.083 71.833 C 227.946 71.833,227.833 71.908,227.833 72.000 C 227.833 72.092,227.681 72.167,227.495 72.167 C 227.309 72.167,227.113 72.279,227.060 72.417 C 227.008 72.554,226.785 72.667,226.566 72.667 C 226.346 72.667,226.167 72.734,226.167 72.815 C 226.167 72.897,225.979 73.011,225.750 73.068 C 225.521 73.126,225.333 73.247,225.333 73.337 C 225.333 73.426,225.043 73.500,224.687 73.500 C 224.316 73.500,223.952 73.606,223.833 73.750 C 223.667 73.951,223.156 74.000,221.230 74.000 C 219.211 74.000,218.833 73.961,218.833 73.750 C 218.833 73.569,218.648 73.500,218.167 73.500 C 217.800 73.500,217.500 73.426,217.500 73.337 C 217.500 73.247,217.313 73.126,217.083 73.068 C 216.854 73.011,216.667 72.897,216.667 72.815 C 216.667 72.734,216.487 72.667,216.268 72.667 C 216.048 72.667,215.826 72.554,215.773 72.417 C 215.720 72.279,215.525 72.167,215.339 72.167 C 215.152 72.167,215.000 72.092,215.000 72.000 C 215.000 71.908,214.887 71.833,214.750 71.833 C 214.612 71.833,214.500 71.753,214.500 71.655 C 214.500 71.478,214.096 71.000,213.946 71.000 C 213.807 71.000,212.833 70.097,212.833 69.969 C 212.833 69.778,211.867 68.833,211.672 68.833 C 211.578 68.833,211.500 68.646,211.500 68.417 C 211.500 68.188,211.425 68.000,211.333 68.000 C 211.242 68.000,211.167 67.813,211.167 67.583 C 211.167 67.324,211.072 67.167,210.917 67.167 C 210.763 67.167,210.667 67.010,210.667 66.760 C 210.667 66.536,210.592 66.307,210.500 66.250 C 210.408 66.193,210.333 65.889,210.333 65.573 C 210.333 65.175,210.257 65.000,210.083 65.000 C 209.889 65.000,209.833 64.779,209.833 64.010 C 209.833 63.465,209.758 62.973,209.667 62.917 C 209.571 62.857,209.500 61.974,209.500 60.833 C 209.500 59.693,209.571 58.809,209.667 58.750 C 209.758 58.693,209.833 58.248,209.833 57.761 C 209.833 57.176,209.918 56.804,210.083 56.667 C 210.221 56.553,210.333 56.248,210.333 55.989 C 210.333 55.731,210.408 55.473,210.500 55.417 C 210.592 55.360,210.667 55.177,210.667 55.011 C 210.667 54.844,210.779 54.614,210.917 54.500 C 211.054 54.386,211.167 54.152,211.167 53.980 C 211.167 53.807,211.242 53.667,211.333 53.667 C 211.425 53.667,211.500 53.551,211.500 53.409 C 211.500 53.267,211.688 52.977,211.917 52.765 C 212.146 52.552,212.333 52.301,212.333 52.207 C 212.333 52.113,212.446 51.992,212.583 51.940 C 212.721 51.887,212.833 51.691,212.833 51.505 C 212.833 51.319,212.911 51.167,213.007 51.167 C 213.171 51.167,213.359 51.036,213.911 50.542 C 214.038 50.427,214.189 50.333,214.246 50.333 C 214.303 50.333,214.523 50.146,214.735 49.917 C 214.948 49.688,215.247 49.500,215.399 49.500 C 215.552 49.500,215.720 49.387,215.773 49.250 C 215.826 49.112,215.973 49.000,216.101 49.000 C 216.229 49.000,216.333 48.925,216.333 48.833 C 216.333 48.742,216.513 48.667,216.732 48.667 C 216.952 48.667,217.174 48.554,217.227 48.417 C 217.290 48.253,217.550 48.167,217.985 48.167 C 218.349 48.167,218.693 48.092,218.750 48.000 C 218.811 47.901,219.887 47.833,221.417 47.833 C 222.946 47.833,224.022 47.901,224.083 48.000 M267.083 48.000 C 267.140 48.092,267.519 48.167,267.927 48.167 C 268.473 48.167,268.667 48.232,268.667 48.417 C 268.667 48.572,268.824 48.667,269.083 48.667 C 269.313 48.667,269.500 48.742,269.500 48.833 C 269.500 48.925,269.604 49.000,269.732 49.000 C 269.860 49.000,270.008 49.112,270.060 49.250 C 270.113 49.387,270.296 49.500,270.467 49.500 C 270.637 49.500,270.877 49.688,271.000 49.917 C 271.123 50.146,271.298 50.333,271.390 50.333 C 271.564 50.333,273.333 52.078,273.333 52.250 C 273.333 52.343,273.510 52.577,273.958 53.077 C 274.073 53.205,274.167 53.419,274.167 53.554 C 274.167 53.688,274.279 53.841,274.417 53.894 C 274.554 53.946,274.667 54.175,274.667 54.402 C 274.667 54.628,274.742 54.860,274.833 54.917 C 274.925 54.973,275.000 55.203,275.000 55.427 C 275.000 55.677,275.096 55.833,275.250 55.833 C 275.442 55.833,275.500 56.046,275.500 56.750 C 275.500 57.254,275.575 57.667,275.667 57.667 C 275.772 57.667,275.833 58.830,275.833 60.823 C 275.833 62.748,275.768 64.021,275.667 64.083 C 275.575 64.140,275.500 64.557,275.500 65.010 C 275.500 65.631,275.438 65.833,275.250 65.833 C 275.094 65.833,275.000 65.991,275.000 66.250 C 275.000 66.479,274.925 66.667,274.833 66.667 C 274.742 66.667,274.667 66.846,274.667 67.066 C 274.667 67.285,274.554 67.508,274.417 67.560 C 274.279 67.613,274.167 67.765,274.167 67.898 C 274.167 68.199,273.628 69.164,273.458 69.166 C 273.390 69.166,273.333 69.279,273.333 69.417 C 273.333 69.554,273.221 69.667,273.083 69.667 C 272.946 69.667,272.833 69.742,272.833 69.833 C 272.833 70.050,271.550 71.333,271.333 71.333 C 271.242 71.333,271.167 71.419,271.167 71.523 C 271.167 71.781,270.651 72.155,270.286 72.161 C 270.123 72.164,269.946 72.279,269.894 72.417 C 269.841 72.554,269.699 72.667,269.579 72.667 C 269.315 72.667,268.272 73.200,268.194 73.375 C 268.164 73.444,267.880 73.500,267.564 73.500 C 267.207 73.500,266.953 73.595,266.894 73.750 C 266.751 74.121,262.249 74.121,262.106 73.750 C 262.043 73.585,261.782 73.500,261.339 73.500 C 260.969 73.500,260.667 73.425,260.667 73.333 C 260.667 73.242,260.584 73.167,260.484 73.167 C 260.221 73.167,259.123 72.635,258.863 72.381 C 258.742 72.263,258.592 72.167,258.530 72.166 C 258.468 72.166,258.199 71.979,257.932 71.750 C 257.666 71.521,257.402 71.333,257.345 71.333 C 257.160 71.333,256.167 70.357,256.167 70.176 C 256.167 70.079,256.095 70.000,256.008 70.000 C 255.920 70.000,255.724 69.737,255.572 69.417 C 255.420 69.096,255.210 68.833,255.105 68.833 C 254.921 68.833,254.646 68.315,254.420 67.542 C 254.360 67.335,254.241 67.167,254.155 67.167 C 254.070 67.167,254.000 66.979,254.000 66.750 C 254.000 66.521,253.935 66.333,253.855 66.333 C 253.775 66.333,253.661 66.033,253.603 65.667 C 253.544 65.300,253.422 65.000,253.331 65.000 C 253.241 65.000,253.167 64.548,253.167 63.995 C 253.167 63.255,253.101 62.964,252.917 62.894 C 252.714 62.816,252.667 62.426,252.667 60.836 C 252.667 59.295,252.720 58.830,252.917 58.667 C 253.082 58.529,253.167 58.156,253.167 57.563 C 253.167 57.070,253.234 56.667,253.315 56.667 C 253.397 56.667,253.511 56.460,253.569 56.208 C 253.852 54.976,254.103 54.284,254.292 54.211 C 254.406 54.167,254.500 53.952,254.500 53.732 C 254.500 53.513,254.575 53.333,254.667 53.333 C 254.758 53.333,254.833 53.221,254.833 53.083 C 254.833 52.946,254.946 52.833,255.083 52.833 C 255.221 52.833,255.333 52.721,255.333 52.583 C 255.333 52.446,255.408 52.333,255.500 52.333 C 255.592 52.333,255.667 52.183,255.667 52.000 C 255.667 51.815,255.778 51.667,255.917 51.667 C 256.054 51.667,256.167 51.567,256.167 51.445 C 256.167 51.323,256.354 51.123,256.583 51.000 C 256.813 50.877,257.000 50.677,257.000 50.555 C 257.000 50.433,257.078 50.333,257.174 50.333 C 257.270 50.333,257.550 50.146,257.797 49.917 C 258.044 49.688,258.341 49.500,258.457 49.500 C 258.572 49.500,258.667 49.387,258.667 49.250 C 258.667 49.094,258.824 49.000,259.083 49.000 C 259.313 49.000,259.500 48.925,259.500 48.833 C 259.500 48.742,259.679 48.667,259.899 48.667 C 260.118 48.667,260.341 48.554,260.394 48.417 C 260.454 48.260,260.709 48.167,261.078 48.167 C 261.402 48.167,261.667 48.092,261.667 48.000 C 261.667 47.896,262.663 47.833,264.323 47.833 C 265.915 47.833,267.022 47.900,267.083 48.000 M311.250 48.000 C 311.307 48.092,311.686 48.167,312.093 48.167 C 312.640 48.167,312.833 48.232,312.833 48.417 C 312.833 48.572,312.991 48.667,313.250 48.667 C 313.479 48.667,313.667 48.742,313.667 48.833 C 313.667 48.925,313.771 49.000,313.899 49.000 C 314.027 49.000,314.174 49.112,314.227 49.250 C 314.280 49.387,314.432 49.500,314.566 49.500 C 314.700 49.500,314.957 49.688,315.137 49.917 C 315.317 50.146,315.510 50.333,315.565 50.333 C 315.749 50.333,317.000 51.624,317.000 51.814 C 317.000 51.916,317.112 52.000,317.250 52.000 C 317.387 52.000,317.500 52.078,317.500 52.174 C 317.500 52.337,317.630 52.526,318.125 53.077 C 318.240 53.205,318.333 53.419,318.333 53.554 C 318.333 53.688,318.446 53.841,318.583 53.894 C 318.721 53.946,318.833 54.175,318.833 54.402 C 318.833 54.628,318.908 54.860,319.000 54.917 C 319.092 54.973,319.167 55.203,319.167 55.427 C 319.167 55.677,319.263 55.833,319.417 55.833 C 319.609 55.833,319.667 56.046,319.667 56.750 C 319.667 57.254,319.742 57.667,319.833 57.667 C 319.939 57.667,320.000 58.833,320.000 60.833 C 320.000 62.833,319.939 64.000,319.833 64.000 C 319.742 64.000,319.667 64.412,319.667 64.917 C 319.667 65.620,319.609 65.833,319.417 65.833 C 319.261 65.833,319.167 65.991,319.167 66.250 C 319.167 66.479,319.092 66.667,319.000 66.667 C 318.908 66.667,318.833 66.846,318.833 67.066 C 318.833 67.285,318.721 67.508,318.583 67.560 C 318.446 67.613,318.333 67.765,318.333 67.898 C 318.333 68.199,317.794 69.164,317.625 69.166 C 317.556 69.166,317.500 69.279,317.500 69.417 C 317.500 69.554,317.387 69.667,317.250 69.667 C 317.112 69.667,317.000 69.742,317.000 69.833 C 317.000 70.050,315.717 71.333,315.500 71.333 C 315.408 71.333,315.333 71.446,315.333 71.583 C 315.333 71.721,315.221 71.833,315.083 71.833 C 314.946 71.833,314.833 71.908,314.833 72.000 C 314.833 72.092,314.681 72.167,314.495 72.167 C 314.309 72.167,314.113 72.279,314.060 72.417 C 314.008 72.554,313.866 72.667,313.746 72.667 C 313.481 72.667,312.439 73.200,312.361 73.375 C 312.331 73.444,312.047 73.500,311.731 73.500 C 311.374 73.500,311.120 73.595,311.060 73.750 C 310.918 74.121,306.369 74.121,306.227 73.750 C 306.164 73.587,305.905 73.500,305.482 73.500 C 305.125 73.500,304.833 73.425,304.833 73.333 C 304.833 73.242,304.751 73.167,304.650 73.167 C 304.387 73.167,303.290 72.635,303.030 72.381 C 302.909 72.263,302.759 72.167,302.696 72.166 C 302.634 72.166,302.365 71.979,302.099 71.750 C 301.833 71.521,301.560 71.333,301.494 71.333 C 301.254 71.333,299.989 69.943,299.728 69.394 C 299.582 69.086,299.376 68.833,299.272 68.833 C 299.087 68.833,298.813 68.315,298.587 67.542 C 298.527 67.335,298.408 67.167,298.322 67.167 C 298.237 67.167,298.167 66.979,298.167 66.750 C 298.167 66.491,298.072 66.333,297.917 66.333 C 297.736 66.333,297.667 66.148,297.667 65.667 C 297.667 65.300,297.592 65.000,297.500 65.000 C 297.408 65.000,297.333 64.593,297.333 64.095 C 297.333 63.513,297.244 63.101,297.083 62.940 C 296.890 62.747,296.833 62.256,296.833 60.782 C 296.833 59.289,296.888 58.829,297.083 58.667 C 297.249 58.529,297.333 58.156,297.333 57.563 C 297.333 57.070,297.408 56.667,297.500 56.667 C 297.592 56.667,297.667 56.399,297.667 56.071 C 297.667 55.744,297.779 55.364,297.917 55.226 C 298.054 55.089,298.167 54.829,298.167 54.650 C 298.167 54.470,298.279 54.280,298.417 54.227 C 298.554 54.174,298.667 53.952,298.667 53.732 C 298.667 53.513,298.742 53.333,298.833 53.333 C 298.925 53.333,299.000 53.221,299.000 53.083 C 299.000 52.946,299.112 52.833,299.250 52.833 C 299.387 52.833,299.500 52.721,299.500 52.583 C 299.500 52.446,299.575 52.333,299.667 52.333 C 299.758 52.333,299.833 52.183,299.833 52.000 C 299.833 51.815,299.944 51.667,300.083 51.667 C 300.221 51.667,300.333 51.567,300.333 51.445 C 300.333 51.323,300.521 51.123,300.750 51.000 C 300.979 50.877,301.167 50.677,301.167 50.555 C 301.167 50.433,301.245 50.333,301.341 50.333 C 301.436 50.333,301.717 50.146,301.964 49.917 C 302.211 49.688,302.508 49.500,302.623 49.500 C 302.739 49.500,302.833 49.387,302.833 49.250 C 302.833 49.094,302.991 49.000,303.250 49.000 C 303.479 49.000,303.667 48.925,303.667 48.833 C 303.667 48.742,303.846 48.667,304.066 48.667 C 304.285 48.667,304.508 48.554,304.560 48.417 C 304.620 48.260,304.875 48.167,305.245 48.167 C 305.568 48.167,305.833 48.092,305.833 48.000 C 305.833 47.896,306.830 47.833,308.490 47.833 C 310.082 47.833,311.188 47.900,311.250 48.000 M355.167 48.000 C 355.167 48.092,355.459 48.167,355.816 48.167 C 356.238 48.167,356.498 48.254,356.560 48.417 C 356.613 48.554,356.809 48.667,356.995 48.667 C 357.181 48.667,357.333 48.742,357.333 48.833 C 357.333 48.925,357.478 49.000,357.655 49.000 C 357.832 49.000,358.256 49.264,358.599 49.587 C 358.941 49.910,359.396 50.218,359.611 50.272 C 359.839 50.329,360.000 50.494,360.000 50.670 C 360.000 50.836,360.262 51.242,360.583 51.572 C 360.904 51.902,361.167 52.321,361.167 52.503 C 361.167 52.686,361.279 52.833,361.417 52.833 C 361.572 52.833,361.667 52.991,361.667 53.250 C 361.667 53.479,361.742 53.667,361.833 53.667 C 361.925 53.667,362.000 53.857,362.000 54.089 C 362.000 54.321,362.113 54.554,362.250 54.606 C 362.413 54.669,362.500 54.928,362.500 55.351 L 362.500 56.000 352.167 56.000 L 341.833 56.000 341.833 55.520 C 341.833 55.257,341.946 54.947,342.083 54.833 C 342.221 54.719,342.333 54.456,342.333 54.247 C 342.333 54.039,342.446 53.826,342.583 53.773 C 342.721 53.720,342.833 53.535,342.833 53.361 C 342.833 53.188,343.009 52.866,343.223 52.648 C 343.437 52.429,343.718 52.006,343.847 51.708 C 343.976 51.410,344.143 51.167,344.219 51.167 C 344.417 51.167,344.833 50.723,344.833 50.512 C 344.833 50.414,344.918 50.333,345.023 50.333 C 345.127 50.333,345.386 50.146,345.598 49.917 C 345.810 49.688,346.090 49.500,346.219 49.500 C 346.348 49.500,346.594 49.313,346.766 49.083 C 346.938 48.854,347.243 48.667,347.444 48.667 C 347.645 48.667,347.922 48.554,348.060 48.417 C 348.197 48.279,348.502 48.167,348.738 48.167 C 348.974 48.167,349.167 48.092,349.167 48.000 C 349.167 47.895,350.278 47.833,352.167 47.833 C 354.056 47.833,355.167 47.895,355.167 48.000 M166.167 55.250 C 166.167 55.447,166.398 55.500,167.250 55.500 C 167.846 55.500,168.333 55.572,168.333 55.659 C 168.333 55.747,168.596 55.867,168.917 55.928 C 169.237 55.988,169.500 56.104,169.500 56.185 C 169.500 56.267,169.616 56.333,169.757 56.333 C 169.998 56.333,170.166 56.440,170.744 56.958 C 170.872 57.073,171.057 57.167,171.155 57.167 C 171.253 57.167,171.333 57.266,171.333 57.389 C 171.333 57.511,171.521 57.711,171.750 57.833 C 171.979 57.956,172.167 58.121,172.167 58.200 C 172.167 58.280,172.373 58.560,172.625 58.824 C 173.297 59.528,173.500 59.799,173.500 59.993 C 173.500 60.089,173.575 60.167,173.667 60.167 C 173.758 60.167,173.833 60.349,173.833 60.571 C 173.833 60.794,173.946 61.089,174.083 61.226 C 174.222 61.365,174.333 61.773,174.333 62.145 C 174.333 62.513,174.408 62.860,174.500 62.917 C 174.592 62.973,174.667 63.390,174.667 63.843 C 174.667 64.296,174.592 64.667,174.500 64.667 C 174.408 64.667,174.333 65.010,174.333 65.429 C 174.333 65.884,174.233 66.291,174.083 66.440 C 173.946 66.578,173.833 66.873,173.833 67.095 C 173.833 67.318,173.758 67.500,173.667 67.500 C 173.575 67.500,173.500 67.688,173.500 67.917 C 173.500 68.176,173.406 68.333,173.250 68.333 C 173.112 68.333,173.000 68.405,173.000 68.493 C 173.000 68.819,170.346 71.333,170.002 71.333 C 169.812 71.333,169.613 71.446,169.560 71.583 C 169.508 71.721,169.285 71.833,169.066 71.833 C 168.846 71.833,168.667 71.908,168.667 72.000 C 168.667 72.092,168.226 72.167,167.679 72.167 C 167.022 72.167,166.606 72.251,166.440 72.417 C 166.226 72.631,165.180 72.667,159.095 72.667 L 152.000 72.667 152.000 63.833 L 152.000 55.000 159.083 55.000 C 165.269 55.000,166.167 55.032,166.167 55.250 " stroke="none" fill="#000000" fill-rule="evenodd"></path></g></svg>