<?xml version="1.0" encoding="UTF-8" standalone="no"?>
<svg
   xmlns:dc="http://purl.org/dc/elements/1.1/"
   xmlns:cc="http://creativecommons.org/ns#"
   xmlns:rdf="http://www.w3.org/1999/02/22-rdf-syntax-ns#"
   xmlns:svg="http://www.w3.org/2000/svg"
   xmlns="http://www.w3.org/2000/svg"
   xmlns:sodipodi="http://sodipodi.sourceforge.net/DTD/sodipodi-0.dtd"
   xmlns:inkscape="http://www.inkscape.org/namespaces/inkscape"
   width="1000.2"
   height="400.88077"
   id="svg2"
   version="1.1"
   inkscape:version="1.0.2 (e86c870879, 2021-01-15)"
   sodipodi:docname="EBay_2012.svg">
  <defs
     id="defs4" />
  <sodipodi:namedview
     id="base"
     pagecolor="#ffffff"
     bordercolor="#666666"
     borderopacity="1.0"
     inkscape:pageopacity="0.0"
     inkscape:pageshadow="2"
     inkscape:zoom="0.47939068"
     inkscape:cx="312.79537"
     inkscape:cy="345.04134"
     inkscape:document-units="px"
     inkscape:current-layer="layer1"
     showgrid="false"
     fit-margin-top="0.1"
     fit-margin-left="0.1"
     fit-margin-right="0.1"
     fit-margin-bottom="0.1"
     inkscape:window-width="1366"
     inkscape:window-height="705"
     inkscape:window-x="-8"
     inkscape:window-y="-8"
     inkscape:window-maximized="1"
     inkscape:document-rotation="0">
    <inkscape:grid
       type="xygrid"
       id="grid2996"
       empspacing="5"
       visible="true"
       enabled="true"
       snapvisiblegridlinesonly="true"
       originx="3.3375e-06"
       originy="-3.7112108e-05" />
  </sodipodi:namedview>
  <metadata
     id="metadata7">
    <rdf:RDF>
      <cc:Work
         rdf:about="">
        <dc:format>image/svg+xml</dc:format>
        <dc:type
           rdf:resource="http://purl.org/dc/dcmitype/StillImage" />
        <dc:title />
      </cc:Work>
    </rdf:RDF>
  </metadata>
  <g
     inkscape:label="Layer 1"
     inkscape:groupmode="layer"
     id="layer1"
     transform="translate(225.63749,-1580.8223)">
    <g
       id="g860">
      <path
         sodipodi:nodetypes="sccsscssscccssscsssc"
         inkscape:connector-curvature="0"
         style="fill:#f5af02;fill-opacity:1;stroke:none;stroke-width:1.82124"
         d="m 410.03658,1668.3416 c -106.11124,0 -112.9166,58.1013 -112.9166,67.3857 h 52.81585 c 0,0 2.7696,-33.9205 56.45827,-33.9205 34.88773,0 61.92198,15.9688 61.92198,46.6692 v 10.9274 H 406.3941 c -82.20588,0 -125.66526,24.0485 -125.66526,72.8495 0,48.0269 40.15509,74.158 94.41969,74.158 73.95426,0 97.77757,-40.8634 97.77757,-40.8634 0,16.2534 1.25309,32.27 1.25309,32.27 h 46.95273 c 0,0 -1.82124,-19.8533 -1.82124,-32.5547 v -109.7865 c 0,-71.9853 -58.06373,-87.1347 -109.2741,-87.1347 z m 58.2795,123.844 v 14.57 c 0,19.003 -11.72622,66.2473 -80.76037,66.2473 -37.80287,0 -54.01103,-18.8663 -54.01103,-40.75 0,-39.811 54.58236,-40.0673 134.7714,-40.0673 z"
         id="path3020" />
      <path
         sodipodi:nodetypes="ccccccccc"
         inkscape:connector-curvature="0"
         id="path3024"
         d="m 490.87015,1677.4569 h 59.41783 l 85.27283,170.8386 85.07769,-170.8386 h 53.82401 l -154.9676,304.1462 h -56.45833 l 44.71783,-84.7847 z"
         style="fill:#86b817;fill-opacity:1;stroke:none;stroke-width:1.82124" />
      <path
         sodipodi:nodetypes="sssccsccsssccs"
         inkscape:connector-curvature="0"
         style="fill:#e53238;fill-opacity:1;stroke:none;stroke-width:1.82124"
         d="m -96.229762,1668.3416 c -70.532798,0 -129.307728,29.9235 -129.307728,120.2016 0,71.5198 39.5219,116.5593 131.128967,116.5593 107.82576,0 114.737821,-71.0283 114.737821,-71.0283 h -52.246721 c 0,0 -11.202129,38.2459 -65.67829,38.2459 -44.369357,0 -76.281537,-29.9728 -76.281537,-71.9841 H 25.792962 v -26.3628 c 0,-41.5624 -26.38444487,-105.6316 -122.022724,-105.6316 z m -1.821239,33.6929 c 42.235029,0 71.028176,25.8741 71.028176,64.6539 H -172.72165 c 0,-41.1696 37.58239,-64.6539 74.670649,-64.6539 z"
         id="path3012" />
      <path
         sodipodi:nodetypes="cccccssscccsssss"
         inkscape:connector-curvature="0"
         style="fill:#0064d2;fill-opacity:1;stroke:none;stroke-width:1.82124"
         d="m 25.755911,1580.9223 v 278.8428 c 0,15.8276 -1.12967,38.0524 -1.12967,38.0524 H 74.45856 c 0,0 1.788679,-15.9618 1.788679,-30.5496 0,0 24.620361,38.5174 91.565011,38.5174 70.49545,0 118.38031,-48.943 118.38031,-119.0634 0,-65.2321 -43.9838,-117.6973 -118.26647,-117.6973 -69.560517,0 -91.175578,37.5629 -91.175578,37.5629 v -125.6652 z m 129.307729,122.592 c 47.87183,0 78.31312,35.5291 78.31312,83.2076 0,51.1267 -35.15865,84.5739 -77.97163,84.5739 -51.09359,0 -78.654618,-39.8939 -78.654618,-84.1186 0,-41.2088 24.731348,-83.6629 78.313128,-83.6629 z"
         id="path3016" />
    </g>
  </g>
</svg>
