<?xml version="1.0" encoding="utf-8"?>
<!-- Generator: Adobe Illustrator 16.0.0, SVG Export Plug-In . SVG Version: 6.00 Build 0)  -->
<!DOCTYPE svg PUBLIC "-//W3C//DTD SVG 1.1//EN" "http://www.w3.org/Graphics/SVG/1.1/DTD/svg11.dtd">
<svg version="1.1" id="Layer_1" xmlns="http://www.w3.org/2000/svg" xmlns:xlink="http://www.w3.org/1999/xlink" x="0px" y="0px"
	 width="1000px" height="344.422px" viewBox="-193.995 223.789 1000 344.422"
	 enable-background="new -193.995 223.789 1000 344.422" xml:space="preserve">
<g id="Artwork">
	<g>
		<g>
			<circle fill="#FF4500" cx="708.986" cy="342.364" r="21.783"/>
			<path fill="#222222" d="M397.854,435.251c10.686,0,16.852-8.015,16.441-15.823c-0.206-4.11-0.616-6.782-1.028-8.837
				c-6.576-28.36-29.592-49.321-56.923-49.321c-32.471,0-58.775,29.387-58.775,65.556c0,36.168,26.305,65.556,58.775,65.556
				c20.344,0,34.934-7.398,45.416-19.113c5.137-5.753,4.108-14.591-2.056-18.905c-5.139-3.494-11.509-2.261-16.235,1.644
				c-4.521,3.904-13.151,11.715-27.125,11.715c-16.441,0-30.416-14.181-33.498-32.882h75.008V435.251z M356.138,386.136
				c14.796,0,27.537,11.508,32.265,27.332h-64.529C328.6,397.438,341.341,386.136,356.138,386.136z"/>
			<path fill="#222222" d="M298.802,374.216c0-6.165-4.521-11.097-10.276-12.124c-17.878-2.671-34.73,3.904-44.389,16.029v-1.645
				c0-7.603-6.165-12.33-12.33-12.33c-6.782,0-12.33,5.549-12.33,12.33v100.696c0,6.577,4.932,12.331,11.509,12.741
				c7.192,0.412,13.151-5.137,13.151-12.329v-51.992c0-23.017,17.263-41.923,41.101-39.251c0.823,0,1.644,0,2.467,0
				C293.87,385.93,298.802,380.587,298.802,374.216z"/>
			<path fill="#222222" d="M721.315,387.369c0-6.782-5.549-12.33-12.329-12.33c-6.781,0-12.331,5.548-12.331,12.33
				c0,0.411,0,86.312,0,90.216c0,6.782,5.55,12.329,12.331,12.329c6.78,0,12.329-5.547,12.329-12.329
				C721.315,473.885,721.315,387.985,721.315,387.369z"/>
			<path fill="#222222" d="M538.008,319.142c0-6.782-5.549-12.33-12.331-12.33l0,0c-6.782,0-12.329,5.548-12.329,12.33v54.87
				c-8.427-8.426-18.906-12.536-31.442-12.536c-32.471,0-58.773,29.387-58.773,65.557c0,36.166,26.303,65.554,58.773,65.554
				c12.536,0,23.222-4.314,31.646-12.742c1.028,5.756,6.166,10.07,12.125,10.07c6.782,0,12.331-5.547,12.331-12.329V319.142z
				 M482.109,468.132c-18.904,0-34.113-18.291-34.113-41.1c0-22.607,15.209-41.102,34.113-41.102
				c18.907,0,34.114,18.291,34.114,41.102C516.224,449.841,500.811,468.132,482.109,468.132z"/>
			<path fill="#222222" d="M666.652,319.142c0-6.782-5.55-12.33-12.331-12.33l0,0c-6.78,0-12.329,5.548-12.329,12.33v54.87
				c-8.425-8.426-18.907-12.536-31.442-12.536c-32.469,0-58.774,29.387-58.774,65.557c0,36.166,26.306,65.554,58.774,65.554
				c12.535,0,23.222-4.314,31.648-12.742c1.026,5.756,6.163,10.07,12.123,10.07c6.781,0,12.331-5.547,12.331-12.329V319.142z
				 M610.55,468.132c-18.907,0-34.113-18.291-34.113-41.1c0-22.607,15.206-41.102,34.113-41.102s34.113,18.291,34.113,41.102
				C644.663,449.841,629.457,468.132,610.55,468.132z"/>
			<path fill="#222222" d="M783.789,477.791v-91.655h10.891c5.756,0,10.893-4.316,11.303-10.276
				c0.412-6.371-4.727-11.714-10.891-11.714h-11.303v-17.262c0-6.576-4.933-12.33-11.508-12.741
				c-7.192-0.412-13.154,5.138-13.154,12.33v17.879h-10.273c-5.756,0-10.893,4.315-11.303,10.275
				c-0.412,6.371,4.727,11.713,10.891,11.713h10.481v91.654c0,6.782,5.548,12.331,12.329,12.331l0,0
				C778.446,489.914,783.789,484.571,783.789,477.791z"/>
		</g>
		<g>
			<circle fill="#FF4500" cx="-21.782" cy="396" r="172.211"/>
			<path fill="#FFFFFF" d="M93.094,396c0-13.974-11.303-25.071-25.071-25.071c-6.782,0-12.947,2.671-17.468,6.987
				c-17.262-12.33-40.896-20.345-67.2-21.372l11.509-53.842l37.401,8.015c0.412,9.454,8.22,17.057,17.878,17.057
				c9.865,0,17.879-8.015,17.879-17.878c0-9.865-8.015-17.879-17.879-17.879c-6.987,0-13.151,4.11-16.029,10.07l-41.717-8.836
				c-1.233-0.206-2.465,0-3.288,0.616c-1.027,0.616-1.644,1.644-1.849,2.876l-12.741,60.008
				c-26.715,0.821-50.759,8.836-68.227,21.372c-4.521-4.316-10.687-6.988-17.468-6.988c-13.974,0-25.071,11.303-25.071,25.072
				c0,10.274,6.166,18.905,14.796,22.812c-0.411,2.465-0.616,4.931-0.616,7.602c0,38.635,45.005,70.077,100.491,70.077
				S78.914,465.46,78.914,426.619c0-2.465-0.205-5.137-0.616-7.602C86.928,415.111,93.094,406.275,93.094,396z M-79.118,413.878
				c0-9.863,8.015-17.878,17.879-17.878c9.864,0,17.878,8.015,17.878,17.878c0,9.864-8.015,17.879-17.878,17.879
				C-71.104,431.963-79.118,423.742-79.118,413.878z M20.962,461.35c-12.33,12.331-35.758,13.151-42.54,13.151
				c-6.987,0-30.415-1.026-42.54-13.151c-1.849-1.849-1.849-4.727,0-6.576c1.85-1.849,4.727-1.849,6.577,0
				c7.809,7.809,24.249,10.48,35.963,10.48s28.359-2.672,35.963-10.48c1.85-1.849,4.727-1.849,6.577,0
				C22.606,456.623,22.606,459.501,20.962,461.35z M17.673,431.963c-9.864,0-17.878-8.015-17.878-17.879
				c0-9.863,8.015-17.878,17.878-17.878c9.865,0,17.879,8.015,17.879,17.878C35.553,423.742,27.538,431.963,17.673,431.963z"/>
		</g>
	</g>
</g>
<g id="Spacing_Guides" display="none">
	
		<rect y="253.07" display="inline" fill="none" stroke="#D8D8D8" stroke-width="0.4925" stroke-miterlimit="10" width="612" height="57.151"/>
	
		<rect y="481.676" display="inline" fill="none" stroke="#D8D8D8" stroke-width="0.4925" stroke-miterlimit="10" width="612" height="57.151"/>
	
		<rect y="253.07" display="inline" fill="none" stroke="#D8D8D8" stroke-width="0.5589" stroke-miterlimit="10" width="57.151" height="285.859"/>
	
		<rect x="554.849" y="253.07" display="inline" fill="none" stroke="#D8D8D8" stroke-width="0.5589" stroke-miterlimit="10" width="57.151" height="285.859"/>
	<g id="reddit_round" display="inline">
	</g>
	<g id="icon_2" display="inline">
	</g>
</g>
</svg>
