<?xml version="1.0" encoding="utf-8"?>
<!-- Generator: Adobe Illustrator 16.0.0, SVG Export Plug-In . SVG Version: 6.00 Build 0)  -->
<!DOCTYPE svg PUBLIC "-//W3C//DTD SVG 1.1//EN" "http://www.w3.org/Graphics/SVG/1.1/DTD/svg11.dtd">
<svg version="1.1" id="Layer_1" xmlns="http://www.w3.org/2000/svg" xmlns:xlink="http://www.w3.org/1999/xlink" x="0px" y="0px"
	 width="1000px" height="282.726px" viewBox="0 0 1000 282.726" enable-background="new 0 0 1000 282.726" xml:space="preserve">
<g>
	<path fill="#00ADEF" d="M223.55,133.026c-0.998,21.78-16.202,51.603-45.613,89.454c-30.41,39.535-56.137,59.305-77.184,59.305
		c-13.033,0-24.07-12.035-33.08-36.119c-6.018-22.072-12.036-44.146-18.053-66.217c-6.693-24.072-13.868-36.119-21.545-36.119
		c-1.672,0-7.529,3.521-17.553,10.537L0,140.306c11.038-9.701,21.926-19.402,32.641-29.118
		c14.72-12.725,25.772-19.417,33.139-20.092c17.406-1.673,28.119,10.229,32.141,35.707c4.344,27.489,7.353,44.587,9.041,51.278
		c5.02,22.809,10.538,34.197,16.569,34.197c4.681,0,11.711-7.396,21.09-22.191c9.364-14.795,14.383-26.049,15.058-33.785
		c1.336-12.768-3.683-19.167-15.058-19.167c-5.357,0-10.875,1.234-16.555,3.67c10.993-36.017,31.995-53.51,62.991-52.512
		C214.04,88.968,224.871,103.879,223.55,133.026"/>
	<path fill="#00ADEF" d="M361.597,203.574c-9.379,17.729-22.265,33.787-38.672,48.17c-22.441,19.402-44.866,29.104-67.291,29.104
		c-10.392,0-18.346-3.346-23.864-10.039c-5.519-6.693-8.117-15.381-7.779-26.096c0.322-11.035,3.757-28.104,10.288-51.191
		c6.532-23.086,9.804-35.471,9.804-37.146c0-8.688-3.023-13.045-9.041-13.045c-2.01,0-7.705,3.521-17.083,10.537l-11.551-13.561
		c10.713-9.701,21.427-19.402,32.141-29.118c14.397-12.725,25.111-19.417,32.156-20.093c11.037-0.998,19.154,2.246,24.349,9.761
		c5.18,7.513,7.104,17.26,5.783,29.265c-4.36,20.355-9.057,46.201-14.075,77.548c-0.338,14.354,4.857,21.516,15.571,21.516
		c4.682,0,13.046-4.945,25.111-14.865c10.039-8.25,18.242-16.014,24.612-23.293L361.597,203.574z M317.904,24.979
		c-0.337,8.335-4.52,16.335-12.562,23.997c-9.041,8.658-19.755,12.988-32.142,12.988c-19.08,0-28.296-8.322-27.621-24.98
		c0.322-8.659,5.428-16.995,15.307-24.994C270.765,4.007,281.726,0,293.791,0c7.03,0,12.887,2.759,17.583,8.249
		C316.055,13.752,318.227,19.328,317.904,24.979"/>
	<path fill="#00ADEF" d="M675.222,203.574c-9.378,17.73-22.265,33.787-38.673,48.17c-22.439,19.402-44.866,29.104-67.29,29.104
		c-21.782,0-32.316-12.037-31.644-36.135c0.323-10.713,2.423-23.584,6.267-38.643c3.846-15.059,5.945-26.77,6.282-35.135
		c0.339-12.709-3.523-19.078-11.595-19.078c-8.731,0-19.137,10.391-31.229,31.141c-12.769,21.766-19.666,42.855-20.665,63.271
		c-0.674,14.41,0.734,25.463,4.227,33.154c-23.363,0.674-39.731-3.184-49.064-11.551c-8.366-7.367-12.197-19.578-11.521-36.662
		c0.322-10.713,1.966-21.426,4.93-32.139c2.951-10.715,4.594-20.256,4.933-28.637c0.676-12.385-3.86-18.578-13.575-18.578
		c-8.395,0-17.451,9.553-27.167,28.633c-9.716,19.078-15.087,39.01-16.085,59.762c-0.676,18.756,0.528,31.805,3.597,39.172
		c-22.985,0.674-39.305-4.17-48.961-14.531c-8.013-8.672-11.667-21.852-10.993-39.551c0.323-8.676,1.849-20.783,4.608-36.311
		c2.759-15.529,4.3-27.621,4.625-36.309c0.66-6.002-0.853-9.014-4.521-9.014c-2.011,0-7.706,3.391-17.084,10.158l-12.049-13.56
		c1.673-1.321,12.211-11.038,31.643-29.12c14.06-13.046,23.599-19.738,28.618-20.076c8.704-0.674,15.733,2.921,21.09,10.787
		c5.356,7.867,8.042,16.996,8.042,27.371c0,3.346-0.337,6.53-0.997,9.541c5.02-7.69,10.875-14.397,17.582-20.093
		c15.396-13.384,32.641-20.929,51.722-22.601c16.407-1.335,28.119,2.509,35.165,11.55c5.678,7.367,8.35,17.92,8.027,31.643
		c2.349-1.995,4.858-4.182,7.544-6.531c7.691-9.04,15.221-16.231,22.588-21.59c12.386-9.04,25.286-14.059,38.671-15.071
		c16.069-1.335,27.62,2.495,34.651,11.506c6.017,7.338,8.703,17.847,8.042,31.509c-0.337,9.349-2.597,22.941-6.779,40.787
		c-4.198,17.848-6.283,28.09-6.283,30.762c-0.336,7.014,0.339,11.844,2.011,14.516c1.674,2.67,5.681,3.99,12.051,3.99
		c4.682,0,13.045-4.945,25.109-14.865c10.04-8.25,18.242-16.014,24.613-23.293L675.222,203.574z"/>
	<path fill="#00ADEF" d="M863.548,203.06c-9.717,16.059-28.793,32.1-57.253,48.141c-35.486,20.398-71.488,30.586-107.972,30.586
		c-27.123,0-46.555-9.041-58.267-27.107c-8.366-12.389-12.389-27.109-12.049-44.191c0.322-27.107,12.388-52.879,36.162-77.33
		c26.11-26.77,56.915-40.168,92.403-40.168c32.815,0,50.221,13.37,52.232,40.082c1.335,17.022-8.044,34.562-28.119,52.601
		c-21.442,19.709-48.404,32.229-80.866,37.57c6.017,8.35,15.055,12.52,27.119,12.52c24.1,0,50.385-6.121,78.855-18.391
		c20.415-8.615,36.487-17.566,48.213-26.844L863.548,203.06z M749.542,150.623c0.324-8.98-3.346-13.488-11.036-13.488
		c-10.037,0-20.225,6.914-30.586,20.738c-10.36,13.824-15.718,27.064-16.041,39.715c-0.19,0-0.19,2.172,0,6.502
		c16.378-5.988,30.586-15.146,42.621-27.475C744.187,165.96,749.204,157.287,749.542,150.623"/>
	<path fill="#00ADEF" d="M999.879,169.394c-1.349,30.762-12.725,57.342-34.151,79.736c-21.426,22.396-48.051,33.596-79.854,33.596
		c-26.447,0-46.538-8.529-60.26-25.582c-10.038-12.695-15.572-28.576-16.569-47.623c-1.687-28.752,8.688-55.172,31.143-79.239
		c24.099-26.741,54.39-40.11,90.891-40.11c23.424,0,41.168,7.867,53.23,23.571C995.695,128.125,1000.877,146.675,999.879,169.394
		 M943.125,167.501c0.34-9.055-0.923-17.363-3.771-24.906c-2.848-7.543-6.955-11.331-12.3-11.331
		c-17.082,0-31.144,9.231-42.178,27.681c-9.395,15.102-14.413,31.201-15.072,48.299c-0.338,8.395,1.172,15.779,4.519,22.146
		c3.669,7.383,8.864,11.066,15.572,11.066c15.058,0,27.959-8.879,38.673-26.668C937.607,199.027,942.452,183.601,943.125,167.501"/>
</g>
</svg>
