<svg id="Capa_1" data-name="Capa 1" xmlns="http://www.w3.org/2000/svg" width="2024.94" height="427.94" viewBox="0 0 2024.94 427.94">
  <g>
    <path d="M662.94,841.36H610.13l-51.49-196-52.06,196h-54L381.79,586.59H429.7l51.05,202.62,55.7-202.62h48.39l52.38,203.86,48.5-203.86H732Z" transform="translate(175.86 -500)" style="fill: #0078d4"/>
    <path d="M799.72,605.22a22.33,22.33,0,0,1-7.61,17.19,27.33,27.33,0,0,1-36.26,0,22.55,22.55,0,0,1-7.43-17.19,23.27,23.27,0,0,1,7.43-17.57A25.66,25.66,0,0,1,774,580.57a24.81,24.81,0,0,1,18.34,7.25,23.39,23.39,0,0,1,7.44,17.4ZM751.94,841.35V657.74h42.8V841.35Z" transform="translate(175.86 -500)" style="fill: #0078d4"/>
    <path d="M959.49,841.36V739.14c0-26.79-8.31-49.9-35.3-49.9s-43.85,24.18-43.85,48.63V841.35H838.46V657.75h41.88v26h.72c13.89-21.5,34-29.06,60.18-29.06,19.69,0,34.92,4.85,45.67,17.41s15.66,31.66,15.66,57.32v112Z" transform="translate(175.86 -500)" style="fill: #0078d4"/>
    <path d="M1169.74,841.36V817.73H1169c-13.3,22.35-40.43,27.51-59.35,27.51-56.16,0-76.8-43.68-76.8-90.16q0-46.22,23-73.94c15.47-18.62,36.13-26.67,62-26.67,40.26,0,51.19,22.4,51.19,22.4h.73V570.61h43.43V841.36Zm.37-104.63c0-22.17-14.26-47.38-44.34-47.38-34.39,0-47.79,30-47.79,64.47,0,30.14,12.61,57.49,45.39,57.94,32.1,0,46.47-30.63,46.74-55.94Z" transform="translate(175.86 -500)" style="fill: #0078d4"/>
    <path d="M1432.27,748.74c0,63.6-38,98.06-95.08,98.06-62.07,0-93.89-37.17-93.89-94.07,0-65.09,38.12-99,98.42-99C1397,653.77,1432.27,689.08,1432.27,748.74Zm-44.59,1.46c0-28.3-10-59.76-48.32-59.76-36.69,0-51,27.34-51,60.84,0,36.39,17.19,59.55,50.73,59.55,36,0,48.33-27.63,48.59-60.63Z" transform="translate(175.86 -500)" style="fill: #0078d4"/>
    <path d="M1662,841.36h-47.24l-36.1-132.89-38.74,132.89h-45.85l-53.42-183.05h44.82l34.89,142.21,40.77-142.21h42l36.35,141.84,34-141.84h41.07Z" transform="translate(175.86 -500)" style="fill: #0078d4"/>
    <path d="M1849.07,790.25c0,40.88-37,56.81-74.22,56.81-24.2,0-48.3-9.32-48.3-9.32V794.26s21,18.25,50.21,18.48c20.06,0,29.1-6.33,29.1-18.34.49-9.66-5.39-15-12.43-19a181.49,181.49,0,0,0-22.65-10.7q-18.13-7.79-27-15a46.7,46.7,0,0,1-13.06-17,55.78,55.78,0,0,1-4.83-22.4c0-33,27.52-56.33,71.53-56.33,29.08,0,41.69,7.13,41.69,7.13v41.27S1818.48,688,1797,687.9c-15.38,0-27,5.6-27.22,18.28-.11,16.34,19.9,24.3,31.86,29.14,17.4,7,30.12,14.49,37.25,23.08s10.22,17.19,10.22,31.84Z" transform="translate(175.86 -500)" style="fill: #0078d4"/>
    <rect width="202.84" height="202.84" style="fill: #0078d4"/>
    <rect x="225.08" width="202.84" height="202.84" style="fill: #0078d4"/>
    <rect y="225.11" width="202.84" height="202.84" style="fill: #0078d4"/>
    <rect x="225.08" y="225.11" width="202.84" height="202.84" style="fill: #0078d4"/>
  </g>
</svg>
