<?xml version="1.0" encoding="UTF-8" standalone="no"?>
<svg
   xmlns:dc="http://purl.org/dc/elements/1.1/"
   xmlns:cc="http://creativecommons.org/ns#"
   xmlns:rdf="http://www.w3.org/1999/02/22-rdf-syntax-ns#"
   xmlns:svg="http://www.w3.org/2000/svg"
   xmlns="http://www.w3.org/2000/svg"
   xmlns:sodipodi="http://sodipodi.sourceforge.net/DTD/sodipodi-0.dtd"
   xmlns:inkscape="http://www.inkscape.org/namespaces/inkscape"
   id="Layer_1"
   data-name="Layer 1"
   width="1000"
   height="260.28833"
   viewBox="0 0 6482.1429 1707.9253"
   focusable="false"
   version="1.1"
   sodipodi:docname="adobe_logo_black[1].svg"
   inkscape:version="0.92.3 (2405546, 2018-03-11)">
  <metadata
     id="metadata23">
    <rdf:RDF>
      <cc:Work
         rdf:about="">
        <dc:format>image/svg+xml</dc:format>
        <dc:type
           rdf:resource="http://purl.org/dc/dcmitype/StillImage" />
        <dc:title />
      </cc:Work>
    </rdf:RDF>
  </metadata>
  <defs
     id="defs21" />
  <sodipodi:namedview
     pagecolor="#ffffff"
     bordercolor="#666666"
     borderopacity="1"
     objecttolerance="10"
     gridtolerance="10"
     guidetolerance="10"
     inkscape:pageopacity="0"
     inkscape:pageshadow="2"
     inkscape:window-width="1366"
     inkscape:window-height="705"
     id="namedview19"
     showgrid="false"
     inkscape:zoom="0.89145962"
     inkscape:cx="549.44893"
     inkscape:cy="8.9999953"
     inkscape:window-x="-8"
     inkscape:window-y="-8"
     inkscape:window-maximized="1"
     inkscape:current-layer="Layer_1" />
  <path
     d="m 2793.4766,1138.7615 -70.7117,218.0638 a 15.906509,15.906509 0 0 1 -16.1957,11.8575 h -171.6457 c -10.2669,0 -13.3036,-5.9288 -11.7129,-14.4604 l 294.8488,-850.9983 a 273.15815,273.15815 0 0 0 14.4605,-89.944 9.8331148,9.8331148 0 0 1 8.8208,-10.267 h 235.8502 c 7.3748,0 10.2669,1.4461 11.8576,8.8209 l 334.6151,943.5452 c 2.8921,7.3748 1.446,13.3036 -7.3749,13.3036 h -191.3119 a 14.460463,14.460463 0 0 1 -16.3403,-10.2669 l -75.1944,-219.6544 z m 286.028,-184.37092 c -28.921,-97.31892 -88.4981,-275.61643 -116.4068,-380.31018 h -1.446 c -23.7152,98.76496 -76.7851,260.28833 -115.6837,380.31018 z"
     id="path2"
     inkscape:connector-curvature="0"
     style="stroke-width:14.46046257;fill:#fa0f00;fill-opacity:1" />
  <path
     d="m 3447.2341,1008.9065 c 0,-210.83353 157.7637,-387.68499 427.5959,-387.68499 11.713,0 26.4627,1.44605 48.5872,2.89209 V 333.7475 a 9.2546963,9.2546963 0 0 1 10.2669,-10.2669 h 185.817 c 7.3748,0 8.8208,2.8921 8.8208,8.8209 v 871.2428 a 819.61904,819.61904 0 0 0 5.9288,107.5859 c 0,7.3748 -1.446,10.4115 -10.2669,13.3036 a 740.52031,740.52031 0 0 1 -290.5107,58.9987 c -218.2084,0 -386.239,-123.7816 -386.239,-374.526 z m 476.1831,-209.24288 a 152.26867,152.26867 0 0 0 -54.516,-7.37483 c -113.5146,0 -210.8335,69.26561 -210.8335,206.3508 0,145.90611 84.0153,209.38751 196.0839,209.38751 a 207.94146,207.94146 0 0 0 69.2656,-8.8209 z"
     id="path4"
     inkscape:connector-curvature="0"
     style="stroke-width:14.46046257;fill:#fa0f00;fill-opacity:1" />
  <path
     d="m 4972.6684,998.63959 c 0,231.36741 -150.3888,384.79291 -362.6684,384.79291 -252.1905,0 -364.1145,-190.1551 -364.1145,-380.3102 0,-209.38747 139.9773,-381.90079 367.0066,-381.90079 237.4408,0 359.7763,178.44211 359.7763,377.41808 z m -518.986,1.44601 c 0,130.1442 60.4447,212.2796 159.0651,212.2796 85.6059,0 150.3888,-73.6037 150.3888,-209.2429 0,-115.68367 -47.1411,-210.83351 -159.0651,-210.83351 -85.4614,0 -150.3888,76.64045 -150.3888,207.79681 z"
     id="path6"
     inkscape:connector-curvature="0"
     style="stroke-width:14.46046257;fill:#fa0f00;fill-opacity:1" />
  <path
     d="m 5282.5561,323.4806 c 11.713,0 14.4605,1.446 14.4605,11.713 v 302.22363 a 476.18305,476.18305 0 0 1 123.7815,-16.19572 c 216.907,0 353.8475,153.28091 353.8475,350.81083 0,275.76106 -218.2083,411.40016 -442.2009,411.40016 a 767.99519,767.99519 0 0 1 -231.3674,-33.9821 17.063346,17.063346 0 0 1 -8.8209,-14.4604 V 333.7475 c 0,-7.3748 2.8921,-10.2669 10.2669,-10.2669 z m 101.2232,471.70028 a 296.29489,296.29489 0 0 0 -86.7627,11.85758 v 400.26564 a 232.95806,232.95806 0 0 0 54.5159,5.7842 c 112.0686,0 213.7256,-67.8196 213.7256,-221.10052 0.2893,-134.91612 -77.7972,-196.8069 -181.045,-196.8069 z"
     id="path8"
     inkscape:connector-curvature="0"
     style="stroke-width:14.46046257;fill:#fa0f00;fill-opacity:1" />
  <path
     d="m 6063.1319,1056.1922 c 7.3748,84.0153 66.3735,153.2809 210.8335,153.2809 a 454.20314,454.20314 0 0 0 181.3342,-33.9821 c 4.4828,-2.892 8.8209,-1.446 8.8209,7.3749 v 140.1219 c 0,10.2669 -2.8921,14.4604 -10.2669,17.6417 -58.9987,28.0533 -123.7816,43.3814 -225.5832,43.3814 -277.2071,0 -374.3814,-190.1551 -374.3814,-372.9353 0,-203.45872 125.2276,-389.27567 356.7396,-389.27567 222.5465,0 311.0446,172.51332 311.0446,318.13018 a 468.08519,468.08519 0 0 1 -7.3749,98.76499 12.725207,12.725207 0 0 1 -11.8576,11.8575 1377.3591,1377.3591 0 0 1 -151.8348,5.9288 z m 191.7457,-143.01394 a 473.86937,473.86937 0 0 0 73.6038,-3.0367 V 899.87463 A 119.87724,119.87724 0 0 0 6203.2538,783.3233 c -92.8362,0 -132.7471,69.41022 -141.568,130.14417 z"
     id="path10"
     inkscape:connector-curvature="0"
     style="stroke-width:14.46046257;fill:#fa0f00;fill-opacity:1" />
  <polygon
     points="133.46,118.11 84.13,0 133.46,0 "
     id="polygon12"
     transform="matrix(14.460463,0,0,14.460463,-39.761962,0)"
     style="fill:#fa0f00;fill-opacity:1" />
  <polygon
     points="0,118.11 49.37,0 0,0 "
     id="polygon14"
     transform="matrix(14.460463,0,0,14.460463,-39.761962,0)"
     style="fill:#fa0f00;fill-opacity:1" />
  <polygon
     points="66.75,43.53 98.18,118.11 77.58,118.11 68.18,94.36 45.18,94.36 "
     id="polygon16"
     transform="matrix(14.460463,0,0,14.460463,-39.761962,0)"
     style="fill:#fa0f00;fill-opacity:1" />
</svg>
